<svg width="1751" height="579" viewBox="0 0 1751 579" fill="none" xmlns="http://www.w3.org/2000/svg">
<path d="M141.71 262H164.338V168.804C164.338 148.861 180.062 134.287 201.54 134.287C207.58 134.287 213.812 135.438 215.347 135.821V112.81C212.758 112.618 206.813 112.426 203.457 112.426C185.815 112.426 170.474 122.398 165.105 136.972H163.571V114.727H141.71V262ZM299.434 265.068C329.349 265.068 351.21 250.111 358.113 227.866L336.252 221.73C330.499 237.071 317.172 244.741 299.434 244.741C272.875 244.741 254.562 227.579 253.507 196.034H360.414V186.446C360.414 131.602 327.815 112.81 297.133 112.81C257.246 112.81 230.783 144.259 230.783 189.514C230.783 234.77 256.863 265.068 299.434 265.068ZM253.507 176.474C255.041 153.559 271.245 133.136 297.133 133.136C321.678 133.136 337.403 151.545 337.403 176.474H253.507ZM438.173 265.452C463.869 265.452 477.293 251.645 481.895 242.057H483.045V262H505.673V164.969C505.673 118.179 470.006 112.81 451.213 112.81C428.969 112.81 403.656 120.48 392.151 147.327L413.628 154.997C418.614 144.259 430.407 132.753 451.98 132.753C472.786 132.753 483.045 143.779 483.045 162.668V163.435C483.045 174.365 471.923 173.406 445.077 176.858C417.751 180.406 387.932 186.446 387.932 220.196C387.932 248.96 410.176 265.452 438.173 265.452ZM441.625 245.125C423.599 245.125 410.56 237.071 410.56 221.347C410.56 204.088 426.284 198.719 443.926 196.418C453.514 195.267 479.21 192.582 483.045 187.98V208.69C483.045 227.099 468.472 245.125 441.625 245.125ZM569.602 173.406C569.602 147.71 585.518 133.136 607.187 133.136C628.185 133.136 640.937 146.847 640.937 169.955V262H663.565V168.42C663.565 130.835 643.526 112.81 613.707 112.81C591.463 112.81 577.656 122.781 570.752 137.739H568.835V114.727H546.974V262H569.602V173.406ZM704.913 262H727.541V114.727H704.913V262ZM716.419 90.1818C725.24 90.1818 732.527 83.2784 732.527 74.8409C732.527 66.4034 725.24 59.5 716.419 59.5C707.598 59.5 700.311 66.4034 700.311 74.8409C700.311 83.2784 707.598 90.1818 716.419 90.1818ZM768.986 262H791.613V169.955C791.613 148.381 807.338 133.136 824.98 133.136C842.143 133.136 854.128 144.354 854.128 161.134V262H877.139V166.119C877.139 147.135 889.028 133.136 909.738 133.136C925.846 133.136 939.653 141.67 939.653 163.435V262H962.281V163.435C962.281 128.822 943.68 112.81 917.409 112.81C896.315 112.81 880.878 122.494 873.304 137.739H871.77C864.483 122.014 851.635 112.81 832.267 112.81C813.091 112.81 798.9 122.014 792.764 137.739H790.846V114.727H768.986V262ZM1046.99 265.452C1072.69 265.452 1086.11 251.645 1090.71 242.057H1091.86V262H1114.49V164.969C1114.49 118.179 1078.82 112.81 1060.03 112.81C1037.79 112.81 1012.47 120.48 1000.97 147.327L1022.45 154.997C1027.43 144.259 1039.23 132.753 1060.8 132.753C1081.6 132.753 1091.86 143.779 1091.86 162.668V163.435C1091.86 174.365 1080.74 173.406 1053.9 176.858C1026.57 180.406 996.75 186.446 996.75 220.196C996.75 248.96 1018.99 265.452 1046.99 265.452ZM1050.44 245.125C1032.42 245.125 1019.38 237.071 1019.38 221.347C1019.38 204.088 1035.1 198.719 1052.74 196.418C1062.33 195.267 1088.03 192.582 1091.86 187.98V208.69C1091.86 227.099 1077.29 245.125 1050.44 245.125ZM1219.84 114.727H1188.39V79.4432H1165.76V114.727H1143.52V133.903H1165.76V225.949C1165.76 251.645 1186.47 263.918 1205.65 263.918C1214.09 263.918 1219.46 262.384 1222.53 261.233L1217.92 240.906C1216.01 241.29 1212.94 242.057 1207.95 242.057C1197.98 242.057 1188.39 238.989 1188.39 219.812V133.903H1219.84V114.727ZM1314.04 265.068C1343.96 265.068 1365.82 250.111 1372.72 227.866L1350.86 221.73C1345.11 237.071 1331.78 244.741 1314.04 244.741C1287.48 244.741 1269.17 227.579 1268.12 196.034H1375.02V186.446C1375.02 131.602 1342.42 112.81 1311.74 112.81C1271.86 112.81 1245.39 144.259 1245.39 189.514C1245.39 234.77 1271.47 265.068 1314.04 265.068ZM1268.12 176.474C1269.65 153.559 1285.85 133.136 1311.74 133.136C1336.29 133.136 1352.01 151.545 1352.01 176.474H1268.12ZM1465.06 265.068C1493.44 265.068 1503.02 247.426 1508.01 239.372H1510.69V262H1532.56V65.6364H1509.93V138.122H1508.01C1503.02 130.452 1494.2 112.81 1465.44 112.81C1428.24 112.81 1402.54 142.341 1402.54 188.747C1402.54 235.537 1428.24 265.068 1465.06 265.068ZM1468.12 244.741C1439.74 244.741 1425.17 219.812 1425.17 188.364C1425.17 157.298 1439.36 133.136 1468.12 133.136C1495.74 133.136 1510.31 155.381 1510.31 188.364C1510.31 221.73 1495.35 244.741 1468.12 244.741ZM1593.63 263.534C1603.12 263.534 1610.89 255.768 1610.89 246.276C1610.89 236.783 1603.12 229.017 1593.63 229.017C1584.14 229.017 1576.37 236.783 1576.37 246.276C1576.37 255.768 1584.14 263.534 1593.63 263.534Z" fill="url(#paint0_linear)"/>
<path d="M60.3027 405.518H57.3027V408.518H60.3027V405.518ZM98.877 398.682L100.735 401.037L100.745 401.029L100.755 401.021L98.877 398.682ZM100.22 358.887L98.2361 361.137L98.2455 361.146L98.2549 361.154L100.22 358.887ZM60.3027 352.539V349.539H57.3027V352.539H60.3027ZM127.686 421.265L125.75 418.973L125.742 418.979L127.686 421.265ZM60.3027 436.523V433.523H57.3027V436.523H60.3027ZM60.3027 500V503H63.3027V500H60.3027ZM22.4609 500H19.4609V503H22.4609V500ZM22.4609 321.533V318.533H19.4609V321.533H22.4609ZM128.784 335.571L126.864 337.876L126.873 337.883L126.882 337.891L128.784 335.571ZM60.3027 408.518H72.7539V402.518H60.3027V408.518ZM72.7539 408.518C84.6985 408.518 94.1977 406.193 100.735 401.037L97.0191 396.326C92.0002 400.285 84.084 402.518 72.7539 402.518V408.518ZM100.755 401.021C107.377 395.704 110.544 388.05 110.544 378.54H104.544C104.544 386.608 101.932 392.381 96.9989 396.342L100.755 401.021ZM110.544 378.54C110.544 369.139 107.944 361.611 102.185 356.62L98.2549 361.154C102.261 364.626 104.544 370.2 104.544 378.54H110.544ZM102.203 356.636C96.6034 351.701 88.1576 349.539 77.5146 349.539V355.539C87.5423 355.539 94.2332 357.609 98.2361 361.137L102.203 356.636ZM77.5146 349.539H60.3027V355.539H77.5146V349.539ZM57.3027 352.539V405.518H63.3027V352.539H57.3027ZM142.752 377.197C142.752 395.731 136.973 409.494 125.75 418.973L129.621 423.557C142.487 412.691 148.752 397.075 148.752 377.197H142.752ZM125.742 418.979C114.507 428.533 98.2499 433.523 76.5381 433.523V439.523C99.0971 439.523 116.938 434.341 129.629 423.55L125.742 418.979ZM76.5381 433.523H60.3027V439.523H76.5381V433.523ZM57.3027 436.523V500H63.3027V436.523H57.3027ZM60.3027 497H22.4609V503H60.3027V497ZM25.4609 500V321.533H19.4609V500H25.4609ZM22.4609 324.533H79.4678V318.533H22.4609V324.533ZM79.4678 324.533C100.74 324.533 116.379 329.139 126.864 337.876L130.705 333.267C118.729 323.286 101.49 318.533 79.4678 318.533V324.533ZM126.882 337.891C137.322 346.453 142.752 359.366 142.752 377.197H148.752C148.752 358.082 142.87 343.244 130.687 333.252L126.882 337.891ZM179.443 500H176.443V503H179.443V500ZM179.443 321.533V318.533H176.443V321.533H179.443ZM217.285 321.533H220.285V318.533H217.285V321.533ZM217.285 468.75H214.285V471.75H217.285V468.75ZM289.673 468.75H292.673V465.75H289.673V468.75ZM289.673 500V503H292.673V500H289.673ZM182.443 500V321.533H176.443V500H182.443ZM179.443 324.533H217.285V318.533H179.443V324.533ZM214.285 321.533V468.75H220.285V321.533H214.285ZM217.285 471.75H289.673V465.75H217.285V471.75ZM286.673 468.75V500H292.673V468.75H286.673ZM289.673 497H179.443V503H289.673V497ZM430.054 500L427.184 500.874L427.831 503H430.054V500ZM417.114 457.52L419.984 456.645L419.337 454.52H417.114V457.52ZM352.051 457.52V454.52H349.828L349.181 456.645L352.051 457.52ZM339.111 500V503H341.334L341.981 500.874L339.111 500ZM298.34 500L295.51 499.005L294.105 503H298.34V500ZM361.328 320.801V317.801H359.203L358.498 319.806L361.328 320.801ZM407.593 320.801L410.422 319.803L409.715 317.801H407.593V320.801ZM470.825 500V503H475.065L473.654 499.002L470.825 500ZM408.081 425.781V428.781H412.155L410.946 424.891L408.081 425.781ZM387.817 360.474L384.936 361.31L384.943 361.331L384.949 361.353L387.817 360.474ZM384.644 348.511L387.572 347.86L381.739 347.762L384.644 348.511ZM361.572 425.781L358.706 424.896L357.506 428.781H361.572V425.781ZM432.924 499.126L419.984 456.645L414.244 458.394L427.184 500.874L432.924 499.126ZM417.114 454.52H352.051V460.52H417.114V454.52ZM349.181 456.645L336.242 499.126L341.981 500.874L354.921 458.394L349.181 456.645ZM339.111 497H298.34V503H339.111V497ZM301.17 500.995L364.158 321.796L358.498 319.806L295.51 499.005L301.17 500.995ZM361.328 323.801H407.593V317.801H361.328V323.801ZM404.764 321.799L467.996 500.998L473.654 499.002L410.422 319.803L404.764 321.799ZM470.825 497H430.054V503H470.825V497ZM410.946 424.891C398.982 386.394 392.23 364.633 390.686 359.595L384.949 361.353C386.498 366.406 393.255 388.183 405.216 426.672L410.946 424.891ZM390.698 359.637C389.24 354.615 388.203 350.698 387.572 347.86L381.715 349.162C382.386 352.183 383.465 356.241 384.936 361.31L390.698 359.637ZM381.739 347.762C379.075 358.094 371.409 383.773 358.706 424.896L364.439 426.667C377.126 385.595 384.841 359.761 387.549 349.26L381.739 347.762ZM361.572 428.781H408.081V422.781H361.572V428.781ZM548.95 395.02L546.27 396.368L548.941 401.675L551.626 396.375L548.95 395.02ZM586.182 321.533V318.533H584.339L583.506 320.177L586.182 321.533ZM626.953 321.533L629.589 322.965L631.996 318.533H626.953V321.533ZM567.749 430.542L565.113 429.11L564.749 429.78V430.542H567.749ZM567.749 500V503H570.749V500H567.749ZM530.151 500H527.151V503H530.151V500ZM530.151 431.763H533.151V431.008L532.794 430.343L530.151 431.763ZM470.947 321.533V318.533H465.931L468.304 322.953L470.947 321.533ZM511.963 321.533L514.643 320.184L513.811 318.533H511.963V321.533ZM551.626 396.375L588.858 322.889L583.506 320.177L546.274 393.664L551.626 396.375ZM586.182 324.533H626.953V318.533H586.182V324.533ZM624.317 320.101L565.113 429.11L570.385 431.974L629.589 322.965L624.317 320.101ZM564.749 430.542V500H570.749V430.542H564.749ZM567.749 497H530.151V503H567.749V497ZM533.151 500V431.763H527.151V500H533.151ZM532.794 430.343L473.59 320.114L468.304 322.953L527.508 433.182L532.794 430.343ZM470.947 324.533H511.963V318.533H470.947V324.533ZM509.283 322.882L546.27 396.368L551.63 393.671L514.643 320.184L509.283 322.882ZM717.163 399.78V396.78H714.163V399.78H717.163ZM787.964 399.78H790.964V396.78H787.964V399.78ZM787.964 492.31L788.894 495.162L790.964 494.486V492.31H787.964ZM755.493 500.122L755.066 497.153L755.052 497.155L755.039 497.157L755.493 500.122ZM662.72 478.76L660.481 480.757L660.487 480.763L660.492 480.769L662.72 478.76ZM666.138 343.14L664.043 340.992L664.038 340.997L666.138 343.14ZM787.72 329.956L790.49 331.107L791.626 328.372L788.906 327.201L787.72 329.956ZM775.146 360.229L773.805 362.913L776.683 364.352L777.917 361.38L775.146 360.229ZM692.261 455.688L689.884 457.519L689.892 457.529L689.9 457.539L692.261 455.688ZM750.977 468.506L751.565 471.448L753.977 470.965V468.506H750.977ZM750.977 431.274H753.977V428.274H750.977V431.274ZM717.163 431.274H714.163V434.274H717.163V431.274ZM717.163 402.78H787.964V396.78H717.163V402.78ZM784.964 399.78V492.31H790.964V399.78H784.964ZM787.033 489.458C775.695 493.156 765.041 495.716 755.066 497.153L755.921 503.091C766.29 501.598 777.283 498.95 788.894 495.162L787.033 489.458ZM755.039 497.157C745.103 498.679 734.92 499.441 724.487 499.441V505.441C735.213 505.441 745.701 504.658 755.948 503.087L755.039 497.157ZM724.487 499.441C698.157 499.441 678.476 491.748 664.947 476.75L660.492 480.769C675.447 497.348 696.944 505.441 724.487 505.441V499.441ZM664.958 476.762C651.452 461.626 644.479 439.697 644.479 410.522H638.479C638.479 440.592 645.667 464.155 660.481 480.757L664.958 476.762ZM644.479 410.522C644.479 382.305 652.512 360.697 668.238 345.282L664.038 340.997C646.886 357.809 638.479 381.123 638.479 410.522H644.479ZM668.232 345.287C684.053 329.856 706.09 321.97 734.741 321.97V315.97C704.961 315.97 681.262 324.197 664.043 340.992L668.232 345.287ZM734.741 321.97C752.639 321.97 769.895 325.547 786.533 332.711L788.906 327.201C771.527 319.717 753.465 315.97 734.741 315.97V321.97ZM784.949 328.805L772.376 359.079L777.917 361.38L790.49 331.107L784.949 328.805ZM776.488 357.546C763.065 350.835 749.058 347.464 734.497 347.464V353.464C748.094 353.464 761.186 356.603 773.805 362.913L776.488 357.546ZM734.497 347.464C717.39 347.464 703.438 353.247 692.956 364.941L697.424 368.946C706.637 358.667 718.889 353.464 734.497 353.464V347.464ZM692.956 364.941C682.499 376.609 677.42 392.159 677.42 411.255H683.42C683.42 393.242 688.188 379.251 697.424 368.946L692.956 364.941ZM677.42 411.255C677.42 430.972 681.429 446.536 689.884 457.519L694.638 453.858C687.305 444.333 683.42 430.275 683.42 411.255H677.42ZM689.9 457.539C698.545 468.566 711.047 473.947 726.929 473.947V467.947C712.537 467.947 701.927 463.156 694.622 453.838L689.9 457.539ZM726.929 473.947C735.03 473.947 743.243 473.112 751.565 471.448L750.388 465.564C742.434 467.155 734.615 467.947 726.929 467.947V473.947ZM753.977 468.506V431.274H747.977V468.506H753.977ZM750.977 428.274H717.163V434.274H750.977V428.274ZM720.163 431.274V399.78H714.163V431.274H720.163ZM868.408 400.757H865.408V403.757H868.408V400.757ZM906.86 357.91L905.28 360.46L905.288 360.465L905.296 360.47L906.86 357.91ZM868.408 352.539V349.539H865.408V352.539H868.408ZM868.408 431.519V428.519H865.408V431.519H868.408ZM868.408 500V503H871.408V500H868.408ZM830.566 500H827.566V503H830.566V500ZM830.566 321.533V318.533H827.566V321.533H830.566ZM936.401 334.839L934.583 337.225L934.593 337.233L936.401 334.839ZM945.19 403.076L947.637 404.813L947.645 404.801L945.19 403.076ZM920.654 422.241L919.45 419.494L916.168 420.932L918.161 423.91L920.654 422.241ZM973.145 500V503H978.88L975.609 498.289L973.145 500ZM931.152 500L928.605 501.585L929.486 503H931.152V500ZM888.55 431.519L891.097 429.934L890.217 428.519H888.55V431.519ZM868.408 403.757H880.615V397.757H868.408V403.757ZM880.615 403.757C892.799 403.757 902.376 401.747 908.825 397.233L905.384 392.318C900.44 395.779 892.358 397.757 880.615 397.757V403.757ZM908.825 397.233C915.511 392.553 918.649 385.247 918.649 375.977H912.649C912.649 383.796 910.092 389.022 905.384 392.318L908.825 397.233ZM918.649 375.977C918.649 366.749 915.392 359.608 908.425 355.35L905.296 360.47C910.047 363.374 912.649 368.277 912.649 375.977H918.649ZM908.441 355.36C901.943 351.333 892.265 349.539 879.883 349.539V355.539C891.915 355.539 900.222 357.325 905.28 360.46L908.441 355.36ZM879.883 349.539H868.408V355.539H879.883V349.539ZM865.408 352.539V400.757H871.408V352.539H865.408ZM865.408 431.519V500H871.408V431.519H865.408ZM868.408 497H830.566V503H868.408V497ZM833.566 500V321.533H827.566V500H833.566ZM830.566 324.533H882.568V318.533H830.566V324.533ZM882.568 324.533C906.557 324.533 923.713 328.939 934.583 337.225L938.22 332.453C925.815 322.997 907.082 318.533 882.568 318.533V324.533ZM934.593 337.233C945.304 345.322 950.857 357.712 950.857 375H956.857C956.857 356.318 950.773 341.933 938.209 332.445L934.593 337.233ZM950.857 375C950.857 384.91 948.142 393.66 942.736 401.351L947.645 404.801C953.794 396.053 956.857 386.086 956.857 375H950.857ZM942.744 401.339C937.328 408.968 929.611 415.038 919.45 419.494L921.859 424.989C932.857 420.167 941.497 413.46 947.637 404.813L942.744 401.339ZM918.161 423.91C945.013 464.025 962.525 489.967 970.68 501.711L975.609 498.289C967.488 486.595 950.006 460.698 923.147 420.572L918.161 423.91ZM973.145 497H931.152V503H973.145V497ZM933.7 498.415L891.097 429.934L886.002 433.103L928.605 501.585L933.7 498.415ZM888.55 428.519H868.408V434.519H888.55V428.519ZM1009.64 342.285L1007.46 340.233L1007.45 340.233L1009.64 342.285ZM1135.74 342.407L1133.53 344.435L1133.54 344.442L1135.74 342.407ZM1038.82 365.479L1041.21 367.291L1041.22 367.282L1038.82 365.479ZM1154.59 410.522C1154.59 439.59 1147.39 461.464 1133.42 476.603L1137.82 480.673C1153.15 464.073 1160.59 440.537 1160.59 410.522H1154.59ZM1133.42 476.603C1119.48 491.702 1099.38 499.441 1072.63 499.441V505.441C1100.58 505.441 1122.47 497.312 1137.82 480.673L1133.42 476.603ZM1072.63 499.441C1045.89 499.441 1025.79 491.702 1011.85 476.603L1007.44 480.673C1022.8 497.312 1044.69 505.441 1072.63 505.441V499.441ZM1011.85 476.603C997.877 461.467 990.671 439.514 990.671 410.278H984.671C984.671 440.45 992.114 464.07 1007.44 480.673L1011.85 476.603ZM990.671 410.278C990.671 381.039 997.878 359.221 1011.83 344.337L1007.45 340.233C992.112 356.599 984.671 380.11 984.671 410.278H990.671ZM1011.83 344.337C1025.85 329.391 1046.04 321.726 1072.88 321.726V315.726C1044.86 315.726 1022.9 323.766 1007.46 340.233L1011.83 344.337ZM1072.88 321.726C1099.71 321.726 1119.76 329.43 1133.53 344.435L1137.95 340.379C1122.75 323.809 1100.89 315.726 1072.88 315.726V321.726ZM1133.54 344.442C1147.43 359.495 1154.59 381.366 1154.59 410.522H1160.59C1160.59 380.434 1153.19 356.895 1137.95 340.373L1133.54 344.442ZM1024.34 410.522C1024.34 430.759 1028.17 446.532 1036.3 457.366L1041.1 453.766C1034.09 444.418 1030.34 430.162 1030.34 410.522H1024.34ZM1036.3 457.366C1044.54 468.364 1056.84 473.703 1072.63 473.703V467.703C1058.31 467.703 1047.99 462.951 1041.1 453.766L1036.3 457.366ZM1072.63 473.703C1088.46 473.703 1100.76 468.401 1108.99 457.462C1117.11 446.683 1120.92 430.873 1120.92 410.522H1114.92C1114.92 430.293 1111.19 444.573 1104.2 453.854C1097.34 462.975 1087 467.703 1072.63 467.703V473.703ZM1120.92 410.522C1120.92 390.135 1117.13 374.298 1109.06 363.5C1100.87 352.538 1088.63 347.22 1072.88 347.22V353.22C1087.15 353.22 1097.43 357.952 1104.26 367.091C1111.2 376.394 1114.92 390.708 1114.92 410.522H1120.92ZM1072.88 347.22C1057.07 347.22 1044.74 352.606 1036.42 363.675L1041.22 367.282C1048.19 358.006 1058.57 353.22 1072.88 353.22V347.22ZM1036.43 363.666C1028.21 374.502 1024.34 390.281 1024.34 410.522H1030.34C1030.34 390.888 1034.12 376.637 1041.21 367.291L1036.43 363.666ZM1339.84 321.533H1342.84V318.533H1339.84V321.533ZM1330.93 471.68L1328.36 470.139L1328.35 470.147L1328.35 470.155L1330.93 471.68ZM1212.4 484.863L1210.36 487.061L1210.37 487.068L1212.4 484.863ZM1193.36 321.533V318.533H1190.36V321.533H1193.36ZM1231.08 321.533H1234.08V318.533H1231.08V321.533ZM1239.38 461.06L1237.11 463.017L1239.38 461.06ZM1293.7 461.06L1291.43 459.1L1291.43 459.102L1293.7 461.06ZM1302.12 321.533V318.533H1299.12V321.533H1302.12ZM1336.84 321.533V437.012H1342.84V321.533H1336.84ZM1336.84 437.012C1336.84 449.73 1333.98 460.738 1328.36 470.139L1333.51 473.22C1339.76 462.764 1342.84 450.661 1342.84 437.012H1336.84ZM1328.35 470.155C1322.82 479.53 1314.78 486.744 1304.13 491.796L1306.71 497.217C1318.36 491.69 1327.33 483.686 1333.52 473.204L1328.35 470.155ZM1304.13 491.796C1293.47 496.856 1280.74 499.441 1265.87 499.441V505.441C1281.43 505.441 1295.07 502.737 1306.71 497.217L1304.13 491.796ZM1265.87 499.441C1243.42 499.441 1226.42 493.717 1214.44 482.659L1210.37 487.068C1223.78 499.447 1242.42 505.441 1265.87 505.441V499.441ZM1214.44 482.666C1202.47 471.535 1196.36 456.278 1196.36 436.523H1190.36C1190.36 457.621 1196.94 474.591 1210.36 487.061L1214.44 482.666ZM1196.36 436.523V321.533H1190.36V436.523H1196.36ZM1193.36 324.533H1231.08V318.533H1193.36V324.533ZM1228.08 321.533V430.786H1234.08V321.533H1228.08ZM1228.08 430.786C1228.08 444.84 1230.89 455.793 1237.11 463.017L1241.65 459.102C1236.8 453.468 1234.08 444.239 1234.08 430.786H1228.08ZM1237.11 463.017C1243.45 470.384 1253.64 473.703 1266.85 473.703V467.703C1254.5 467.703 1246.38 464.593 1241.65 459.102L1237.11 463.017ZM1266.85 473.703C1279.68 473.703 1289.65 470.366 1295.97 463.017L1291.43 459.102C1286.69 464.612 1278.75 467.703 1266.85 467.703V473.703ZM1295.97 463.019C1302.27 455.717 1305.12 444.684 1305.12 430.542H1299.12C1299.12 444.069 1296.36 453.381 1291.43 459.1L1295.97 463.019ZM1305.12 430.542V321.533H1299.12V430.542H1305.12ZM1302.12 324.533H1339.84V318.533H1302.12V324.533ZM1541.87 500V503H1544.87V500H1541.87ZM1493.77 500L1491.17 501.496L1492.04 503H1493.77V500ZM1416.14 364.99L1418.74 363.495L1417.87 361.99H1416.14V364.99ZM1415.04 364.99V361.99H1411.84L1412.05 365.184L1415.04 364.99ZM1417.36 500V503H1420.36V500H1417.36ZM1383.54 500H1380.54V503H1383.54V500ZM1383.54 321.533V318.533H1380.54V321.533H1383.54ZM1431.27 321.533L1433.87 320.028L1433 318.533H1431.27V321.533ZM1508.79 455.2L1506.19 456.705L1507.06 458.2H1508.79V455.2ZM1509.64 455.2V458.2H1512.81L1512.64 455.043L1509.64 455.2ZM1507.81 321.533V318.533H1504.81V321.533H1507.81ZM1541.87 321.533H1544.87V318.533H1541.87V321.533ZM1541.87 497H1493.77V503H1541.87V497ZM1496.38 498.504L1418.74 363.495L1413.54 366.486L1491.17 501.496L1496.38 498.504ZM1416.14 361.99H1415.04V367.99H1416.14V361.99ZM1412.05 365.184C1413.59 389.027 1414.36 405.95 1414.36 416.016H1420.36C1420.36 405.737 1419.58 388.643 1418.03 364.796L1412.05 365.184ZM1414.36 416.016V500H1420.36V416.016H1414.36ZM1417.36 497H1383.54V503H1417.36V497ZM1386.54 500V321.533H1380.54V500H1386.54ZM1383.54 324.533H1431.27V318.533H1383.54V324.533ZM1428.68 323.038L1506.19 456.705L1511.38 453.695L1433.87 320.028L1428.68 323.038ZM1508.79 458.2H1509.64V452.2H1508.79V458.2ZM1512.64 455.043C1511.42 431.849 1510.81 415.522 1510.81 406.006H1504.81C1504.81 415.696 1505.43 432.165 1506.65 455.358L1512.64 455.043ZM1510.81 406.006V321.533H1504.81V406.006H1510.81ZM1507.81 324.533H1541.87V318.533H1507.81V324.533ZM1538.87 321.533V500H1544.87V321.533H1538.87ZM1709.84 476.562L1707.79 474.368L1707.79 474.373L1709.84 476.562ZM1586.91 500H1583.91V503H1586.91V500ZM1586.91 321.533V318.533H1583.91V321.533H1586.91ZM1624.76 352.539V349.539H1621.76V352.539H1624.76ZM1624.76 468.75H1621.76V471.75H1624.76V468.75ZM1731.99 409.058C1731.99 437.852 1723.79 459.46 1707.79 474.368L1711.88 478.757C1729.42 462.415 1737.99 439.02 1737.99 409.058H1731.99ZM1707.79 474.373C1691.84 489.306 1668.56 497 1637.45 497V503C1669.49 503 1694.47 495.069 1711.89 478.752L1707.79 474.373ZM1637.45 497H1586.91V503H1637.45V497ZM1589.91 500V321.533H1583.91V500H1589.91ZM1586.91 324.533H1642.94V318.533H1586.91V324.533ZM1642.94 324.533C1671.55 324.533 1693.34 332.075 1708.74 346.775L1712.89 342.434C1696.06 326.373 1672.6 318.533 1642.94 318.533V324.533ZM1708.74 346.775C1724.13 361.46 1731.99 382.081 1731.99 409.058H1737.99C1737.99 380.859 1729.73 358.511 1712.89 342.434L1708.74 346.775ZM1698.68 410.034C1698.68 390.492 1694.37 375.275 1685.23 364.927C1676.03 354.508 1662.39 349.539 1644.9 349.539V355.539C1661.26 355.539 1673.01 360.153 1680.73 368.899C1688.52 377.716 1692.68 391.246 1692.68 410.034H1698.68ZM1644.9 349.539H1624.76V355.539H1644.9V349.539ZM1621.76 352.539V468.75H1627.76V352.539H1621.76ZM1624.76 471.75H1640.99V465.75H1624.76V471.75ZM1640.99 471.75C1659.74 471.75 1674.34 466.708 1684.2 456.116C1694.03 445.564 1698.68 430.018 1698.68 410.034H1692.68C1692.68 429.195 1688.21 443.006 1679.81 452.026C1671.45 461.006 1658.7 465.75 1640.99 465.75V471.75Z" fill="#1B9AAA"/>
<path d="M61.3027 411.518H58.3027V414.518H61.3027V411.518ZM99.877 404.682L101.735 407.037L101.745 407.029L101.755 407.021L99.877 404.682ZM101.22 364.887L99.2361 367.137L99.2455 367.146L99.2549 367.154L101.22 364.887ZM61.3027 358.539V355.539H58.3027V358.539H61.3027ZM128.686 427.265L126.75 424.973L126.742 424.979L128.686 427.265ZM61.3027 442.523V439.523H58.3027V442.523H61.3027ZM61.3027 506V509H64.3027V506H61.3027ZM23.4609 506H20.4609V509H23.4609V506ZM23.4609 327.533V324.533H20.4609V327.533H23.4609ZM129.784 341.571L127.864 343.876L127.873 343.883L127.882 343.891L129.784 341.571ZM61.3027 414.518H73.7539V408.518H61.3027V414.518ZM73.7539 414.518C85.6985 414.518 95.1977 412.193 101.735 407.037L98.0191 402.326C93.0002 406.285 85.084 408.518 73.7539 408.518V414.518ZM101.755 407.021C108.377 401.704 111.544 394.05 111.544 384.54H105.544C105.544 392.608 102.932 398.381 97.9989 402.342L101.755 407.021ZM111.544 384.54C111.544 375.139 108.944 367.611 103.185 362.62L99.2549 367.154C103.261 370.626 105.544 376.2 105.544 384.54H111.544ZM103.203 362.636C97.6034 357.701 89.1576 355.539 78.5146 355.539V361.539C88.5423 361.539 95.2332 363.609 99.2361 367.137L103.203 362.636ZM78.5146 355.539H61.3027V361.539H78.5146V355.539ZM58.3027 358.539V411.518H64.3027V358.539H58.3027ZM143.752 383.197C143.752 401.731 137.973 415.494 126.75 424.973L130.621 429.557C143.487 418.691 149.752 403.075 149.752 383.197H143.752ZM126.742 424.979C115.507 434.533 99.2499 439.523 77.5381 439.523V445.523C100.097 445.523 117.938 440.341 130.629 429.55L126.742 424.979ZM77.5381 439.523H61.3027V445.523H77.5381V439.523ZM58.3027 442.523V506H64.3027V442.523H58.3027ZM61.3027 503H23.4609V509H61.3027V503ZM26.4609 506V327.533H20.4609V506H26.4609ZM23.4609 330.533H80.4678V324.533H23.4609V330.533ZM80.4678 330.533C101.74 330.533 117.379 335.139 127.864 343.876L131.705 339.267C119.729 329.286 102.49 324.533 80.4678 324.533V330.533ZM127.882 343.891C138.322 352.453 143.752 365.366 143.752 383.197H149.752C149.752 364.082 143.87 349.244 131.687 339.252L127.882 343.891ZM180.443 506H177.443V509H180.443V506ZM180.443 327.533V324.533H177.443V327.533H180.443ZM218.285 327.533H221.285V324.533H218.285V327.533ZM218.285 474.75H215.285V477.75H218.285V474.75ZM290.673 474.75H293.673V471.75H290.673V474.75ZM290.673 506V509H293.673V506H290.673ZM183.443 506V327.533H177.443V506H183.443ZM180.443 330.533H218.285V324.533H180.443V330.533ZM215.285 327.533V474.75H221.285V327.533H215.285ZM218.285 477.75H290.673V471.75H218.285V477.75ZM287.673 474.75V506H293.673V474.75H287.673ZM290.673 503H180.443V509H290.673V503ZM431.054 506L428.184 506.874L428.831 509H431.054V506ZM418.114 463.52L420.984 462.645L420.337 460.52H418.114V463.52ZM353.051 463.52V460.52H350.828L350.181 462.645L353.051 463.52ZM340.111 506V509H342.334L342.981 506.874L340.111 506ZM299.34 506L296.51 505.005L295.105 509H299.34V506ZM362.328 326.801V323.801H360.203L359.498 325.806L362.328 326.801ZM408.593 326.801L411.422 325.803L410.715 323.801H408.593V326.801ZM471.825 506V509H476.065L474.654 505.002L471.825 506ZM409.081 431.781V434.781H413.155L411.946 430.891L409.081 431.781ZM388.817 366.474L385.936 367.31L385.943 367.331L385.949 367.353L388.817 366.474ZM385.644 354.511L388.572 353.86L382.739 353.762L385.644 354.511ZM362.572 431.781L359.706 430.896L358.506 434.781H362.572V431.781ZM433.924 505.126L420.984 462.645L415.244 464.394L428.184 506.874L433.924 505.126ZM418.114 460.52H353.051V466.52H418.114V460.52ZM350.181 462.645L337.242 505.126L342.981 506.874L355.921 464.394L350.181 462.645ZM340.111 503H299.34V509H340.111V503ZM302.17 506.995L365.158 327.796L359.498 325.806L296.51 505.005L302.17 506.995ZM362.328 329.801H408.593V323.801H362.328V329.801ZM405.764 327.799L468.996 506.998L474.654 505.002L411.422 325.803L405.764 327.799ZM471.825 503H431.054V509H471.825V503ZM411.946 430.891C399.982 392.394 393.23 370.633 391.686 365.595L385.949 367.353C387.498 372.406 394.255 394.183 406.216 432.672L411.946 430.891ZM391.698 365.637C390.24 360.615 389.203 356.698 388.572 353.86L382.715 355.162C383.386 358.183 384.465 362.241 385.936 367.31L391.698 365.637ZM382.739 353.762C380.075 364.094 372.409 389.773 359.706 430.896L365.439 432.667C378.126 391.595 385.841 365.761 388.549 355.26L382.739 353.762ZM362.572 434.781H409.081V428.781H362.572V434.781ZM549.95 401.02L547.27 402.368L549.941 407.675L552.626 402.375L549.95 401.02ZM587.182 327.533V324.533H585.339L584.506 326.177L587.182 327.533ZM627.953 327.533L630.589 328.965L632.996 324.533H627.953V327.533ZM568.749 436.542L566.113 435.11L565.749 435.78V436.542H568.749ZM568.749 506V509H571.749V506H568.749ZM531.151 506H528.151V509H531.151V506ZM531.151 437.763H534.151V437.008L533.794 436.343L531.151 437.763ZM471.947 327.533V324.533H466.931L469.304 328.953L471.947 327.533ZM512.963 327.533L515.643 326.184L514.811 324.533H512.963V327.533ZM552.626 402.375L589.858 328.889L584.506 326.177L547.274 399.664L552.626 402.375ZM587.182 330.533H627.953V324.533H587.182V330.533ZM625.317 326.101L566.113 435.11L571.385 437.974L630.589 328.965L625.317 326.101ZM565.749 436.542V506H571.749V436.542H565.749ZM568.749 503H531.151V509H568.749V503ZM534.151 506V437.763H528.151V506H534.151ZM533.794 436.343L474.59 326.114L469.304 328.953L528.508 439.182L533.794 436.343ZM471.947 330.533H512.963V324.533H471.947V330.533ZM510.283 328.882L547.27 402.368L552.63 399.671L515.643 326.184L510.283 328.882ZM718.163 405.78V402.78H715.163V405.78H718.163ZM788.964 405.78H791.964V402.78H788.964V405.78ZM788.964 498.31L789.894 501.162L791.964 500.486V498.31H788.964ZM756.493 506.122L756.066 503.153L756.052 503.155L756.039 503.157L756.493 506.122ZM663.72 484.76L661.481 486.757L661.487 486.763L661.492 486.769L663.72 484.76ZM667.138 349.14L665.043 346.992L665.038 346.997L667.138 349.14ZM788.72 335.956L791.49 337.107L792.626 334.372L789.906 333.201L788.72 335.956ZM776.146 366.229L774.805 368.913L777.683 370.352L778.917 367.38L776.146 366.229ZM693.261 461.688L690.884 463.519L690.892 463.529L690.9 463.539L693.261 461.688ZM751.977 474.506L752.565 477.448L754.977 476.965V474.506H751.977ZM751.977 437.274H754.977V434.274H751.977V437.274ZM718.163 437.274H715.163V440.274H718.163V437.274ZM718.163 408.78H788.964V402.78H718.163V408.78ZM785.964 405.78V498.31H791.964V405.78H785.964ZM788.033 495.458C776.695 499.156 766.041 501.716 756.066 503.153L756.921 509.091C767.29 507.598 778.283 504.95 789.894 501.162L788.033 495.458ZM756.039 503.157C746.103 504.679 735.92 505.441 725.487 505.441V511.441C736.213 511.441 746.701 510.658 756.948 509.087L756.039 503.157ZM725.487 505.441C699.157 505.441 679.476 497.748 665.947 482.75L661.492 486.769C676.447 503.348 697.944 511.441 725.487 511.441V505.441ZM665.958 482.762C652.452 467.626 645.479 445.697 645.479 416.522H639.479C639.479 446.592 646.667 470.155 661.481 486.757L665.958 482.762ZM645.479 416.522C645.479 388.305 653.512 366.697 669.238 351.282L665.038 346.997C647.886 363.809 639.479 387.123 639.479 416.522H645.479ZM669.232 351.287C685.053 335.856 707.09 327.97 735.741 327.97V321.97C705.961 321.97 682.262 330.197 665.043 346.992L669.232 351.287ZM735.741 327.97C753.639 327.97 770.895 331.547 787.533 338.711L789.906 333.201C772.527 325.717 754.465 321.97 735.741 321.97V327.97ZM785.949 334.805L773.376 365.079L778.917 367.38L791.49 337.107L785.949 334.805ZM777.488 363.546C764.065 356.835 750.058 353.464 735.497 353.464V359.464C749.094 359.464 762.186 362.603 774.805 368.913L777.488 363.546ZM735.497 353.464C718.39 353.464 704.438 359.247 693.956 370.941L698.424 374.946C707.637 364.667 719.889 359.464 735.497 359.464V353.464ZM693.956 370.941C683.499 382.609 678.42 398.159 678.42 417.255H684.42C684.42 399.242 689.188 385.251 698.424 374.946L693.956 370.941ZM678.42 417.255C678.42 436.972 682.429 452.536 690.884 463.519L695.638 459.858C688.305 450.333 684.42 436.275 684.42 417.255H678.42ZM690.9 463.539C699.545 474.566 712.047 479.947 727.929 479.947V473.947C713.537 473.947 702.927 469.156 695.622 459.838L690.9 463.539ZM727.929 479.947C736.03 479.947 744.243 479.112 752.565 477.448L751.388 471.564C743.434 473.155 735.615 473.947 727.929 473.947V479.947ZM754.977 474.506V437.274H748.977V474.506H754.977ZM751.977 434.274H718.163V440.274H751.977V434.274ZM721.163 437.274V405.78H715.163V437.274H721.163ZM869.408 406.757H866.408V409.757H869.408V406.757ZM907.86 363.91L906.28 366.46L906.288 366.465L906.296 366.47L907.86 363.91ZM869.408 358.539V355.539H866.408V358.539H869.408ZM869.408 437.519V434.519H866.408V437.519H869.408ZM869.408 506V509H872.408V506H869.408ZM831.566 506H828.566V509H831.566V506ZM831.566 327.533V324.533H828.566V327.533H831.566ZM937.401 340.839L935.583 343.225L935.593 343.233L937.401 340.839ZM946.19 409.076L948.637 410.813L948.645 410.801L946.19 409.076ZM921.654 428.241L920.45 425.494L917.168 426.932L919.161 429.91L921.654 428.241ZM974.145 506V509H979.88L976.609 504.289L974.145 506ZM932.152 506L929.605 507.585L930.486 509H932.152V506ZM889.55 437.519L892.097 435.934L891.217 434.519H889.55V437.519ZM869.408 409.757H881.615V403.757H869.408V409.757ZM881.615 409.757C893.799 409.757 903.376 407.747 909.825 403.233L906.384 398.318C901.44 401.779 893.358 403.757 881.615 403.757V409.757ZM909.825 403.233C916.511 398.553 919.649 391.247 919.649 381.977H913.649C913.649 389.796 911.092 395.022 906.384 398.318L909.825 403.233ZM919.649 381.977C919.649 372.749 916.392 365.608 909.425 361.35L906.296 366.47C911.047 369.374 913.649 374.277 913.649 381.977H919.649ZM909.441 361.36C902.943 357.333 893.265 355.539 880.883 355.539V361.539C892.915 361.539 901.222 363.325 906.28 366.46L909.441 361.36ZM880.883 355.539H869.408V361.539H880.883V355.539ZM866.408 358.539V406.757H872.408V358.539H866.408ZM866.408 437.519V506H872.408V437.519H866.408ZM869.408 503H831.566V509H869.408V503ZM834.566 506V327.533H828.566V506H834.566ZM831.566 330.533H883.568V324.533H831.566V330.533ZM883.568 330.533C907.557 330.533 924.713 334.939 935.583 343.225L939.22 338.453C926.815 328.997 908.082 324.533 883.568 324.533V330.533ZM935.593 343.233C946.304 351.322 951.857 363.712 951.857 381H957.857C957.857 362.318 951.773 347.933 939.209 338.445L935.593 343.233ZM951.857 381C951.857 390.91 949.142 399.66 943.736 407.351L948.645 410.801C954.794 402.053 957.857 392.086 957.857 381H951.857ZM943.744 407.339C938.328 414.968 930.611 421.038 920.45 425.494L922.859 430.989C933.857 426.167 942.497 419.46 948.637 410.813L943.744 407.339ZM919.161 429.91C946.013 470.025 963.525 495.967 971.68 507.711L976.609 504.289C968.488 492.595 951.006 466.698 924.147 426.572L919.161 429.91ZM974.145 503H932.152V509H974.145V503ZM934.7 504.415L892.097 435.934L887.002 439.103L929.605 507.585L934.7 504.415ZM889.55 434.519H869.408V440.519H889.55V434.519ZM1010.64 348.285L1008.46 346.233L1008.45 346.233L1010.64 348.285ZM1136.74 348.407L1134.53 350.435L1134.54 350.442L1136.74 348.407ZM1039.82 371.479L1042.21 373.291L1042.22 373.282L1039.82 371.479ZM1155.59 416.522C1155.59 445.59 1148.39 467.464 1134.42 482.603L1138.82 486.673C1154.15 470.073 1161.59 446.537 1161.59 416.522H1155.59ZM1134.42 482.603C1120.48 497.702 1100.38 505.441 1073.63 505.441V511.441C1101.58 511.441 1123.47 503.312 1138.82 486.673L1134.42 482.603ZM1073.63 505.441C1046.89 505.441 1026.79 497.702 1012.85 482.603L1008.44 486.673C1023.8 503.312 1045.69 511.441 1073.63 511.441V505.441ZM1012.85 482.603C998.877 467.467 991.671 445.514 991.671 416.278H985.671C985.671 446.45 993.114 470.07 1008.44 486.673L1012.85 482.603ZM991.671 416.278C991.671 387.039 998.878 365.221 1012.83 350.337L1008.45 346.233C993.112 362.599 985.671 386.11 985.671 416.278H991.671ZM1012.83 350.337C1026.85 335.391 1047.04 327.726 1073.88 327.726V321.726C1045.86 321.726 1023.9 329.766 1008.46 346.233L1012.83 350.337ZM1073.88 327.726C1100.71 327.726 1120.76 335.43 1134.53 350.435L1138.95 346.379C1123.75 329.809 1101.89 321.726 1073.88 321.726V327.726ZM1134.54 350.442C1148.43 365.495 1155.59 387.366 1155.59 416.522H1161.59C1161.59 386.434 1154.19 362.895 1138.95 346.373L1134.54 350.442ZM1025.34 416.522C1025.34 436.759 1029.17 452.532 1037.3 463.366L1042.1 459.766C1035.09 450.418 1031.34 436.162 1031.34 416.522H1025.34ZM1037.3 463.366C1045.54 474.364 1057.84 479.703 1073.63 479.703V473.703C1059.31 473.703 1048.99 468.951 1042.1 459.766L1037.3 463.366ZM1073.63 479.703C1089.46 479.703 1101.76 474.401 1109.99 463.462C1118.11 452.683 1121.92 436.873 1121.92 416.522H1115.92C1115.92 436.293 1112.19 450.573 1105.2 459.854C1098.34 468.975 1088 473.703 1073.63 473.703V479.703ZM1121.92 416.522C1121.92 396.135 1118.13 380.298 1110.06 369.5C1101.87 358.538 1089.63 353.22 1073.88 353.22V359.22C1088.15 359.22 1098.43 363.952 1105.26 373.091C1112.2 382.394 1115.92 396.708 1115.92 416.522H1121.92ZM1073.88 353.22C1058.07 353.22 1045.74 358.606 1037.42 369.675L1042.22 373.282C1049.19 364.006 1059.57 359.22 1073.88 359.22V353.22ZM1037.43 369.666C1029.21 380.502 1025.34 396.281 1025.34 416.522H1031.34C1031.34 396.888 1035.12 382.637 1042.21 373.291L1037.43 369.666ZM1340.84 327.533H1343.84V324.533H1340.84V327.533ZM1331.93 477.68L1329.36 476.139L1329.35 476.147L1329.35 476.155L1331.93 477.68ZM1213.4 490.863L1211.36 493.061L1211.37 493.068L1213.4 490.863ZM1194.36 327.533V324.533H1191.36V327.533H1194.36ZM1232.08 327.533H1235.08V324.533H1232.08V327.533ZM1240.38 467.06L1238.11 469.017L1240.38 467.06ZM1294.7 467.06L1292.43 465.1L1292.43 465.102L1294.7 467.06ZM1303.12 327.533V324.533H1300.12V327.533H1303.12ZM1337.84 327.533V443.012H1343.84V327.533H1337.84ZM1337.84 443.012C1337.84 455.73 1334.98 466.738 1329.36 476.139L1334.51 479.22C1340.76 468.764 1343.84 456.661 1343.84 443.012H1337.84ZM1329.35 476.155C1323.82 485.53 1315.78 492.744 1305.13 497.796L1307.71 503.217C1319.36 497.69 1328.33 489.686 1334.52 479.204L1329.35 476.155ZM1305.13 497.796C1294.47 502.856 1281.74 505.441 1266.87 505.441V511.441C1282.43 511.441 1296.07 508.737 1307.71 503.217L1305.13 497.796ZM1266.87 505.441C1244.42 505.441 1227.42 499.717 1215.44 488.659L1211.37 493.068C1224.78 505.447 1243.42 511.441 1266.87 511.441V505.441ZM1215.44 488.666C1203.47 477.535 1197.36 462.278 1197.36 442.523H1191.36C1191.36 463.621 1197.94 480.591 1211.36 493.061L1215.44 488.666ZM1197.36 442.523V327.533H1191.36V442.523H1197.36ZM1194.36 330.533H1232.08V324.533H1194.36V330.533ZM1229.08 327.533V436.786H1235.08V327.533H1229.08ZM1229.08 436.786C1229.08 450.84 1231.89 461.793 1238.11 469.017L1242.65 465.102C1237.8 459.468 1235.08 450.239 1235.08 436.786H1229.08ZM1238.11 469.017C1244.45 476.384 1254.64 479.703 1267.85 479.703V473.703C1255.5 473.703 1247.38 470.593 1242.65 465.102L1238.11 469.017ZM1267.85 479.703C1280.68 479.703 1290.65 476.366 1296.97 469.017L1292.43 465.102C1287.69 470.612 1279.75 473.703 1267.85 473.703V479.703ZM1296.97 469.019C1303.27 461.717 1306.12 450.684 1306.12 436.542H1300.12C1300.12 450.069 1297.36 459.381 1292.43 465.1L1296.97 469.019ZM1306.12 436.542V327.533H1300.12V436.542H1306.12ZM1303.12 330.533H1340.84V324.533H1303.12V330.533ZM1542.87 506V509H1545.87V506H1542.87ZM1494.77 506L1492.17 507.496L1493.04 509H1494.77V506ZM1417.14 370.99L1419.74 369.495L1418.87 367.99H1417.14V370.99ZM1416.04 370.99V367.99H1412.84L1413.05 371.184L1416.04 370.99ZM1418.36 506V509H1421.36V506H1418.36ZM1384.54 506H1381.54V509H1384.54V506ZM1384.54 327.533V324.533H1381.54V327.533H1384.54ZM1432.27 327.533L1434.87 326.028L1434 324.533H1432.27V327.533ZM1509.79 461.2L1507.19 462.705L1508.06 464.2H1509.79V461.2ZM1510.64 461.2V464.2H1513.81L1513.64 461.043L1510.64 461.2ZM1508.81 327.533V324.533H1505.81V327.533H1508.81ZM1542.87 327.533H1545.87V324.533H1542.87V327.533ZM1542.87 503H1494.77V509H1542.87V503ZM1497.38 504.504L1419.74 369.495L1414.54 372.486L1492.17 507.496L1497.38 504.504ZM1417.14 367.99H1416.04V373.99H1417.14V367.99ZM1413.05 371.184C1414.59 395.027 1415.36 411.95 1415.36 422.016H1421.36C1421.36 411.737 1420.58 394.643 1419.03 370.796L1413.05 371.184ZM1415.36 422.016V506H1421.36V422.016H1415.36ZM1418.36 503H1384.54V509H1418.36V503ZM1387.54 506V327.533H1381.54V506H1387.54ZM1384.54 330.533H1432.27V324.533H1384.54V330.533ZM1429.68 329.038L1507.19 462.705L1512.38 459.695L1434.87 326.028L1429.68 329.038ZM1509.79 464.2H1510.64V458.2H1509.79V464.2ZM1513.64 461.043C1512.42 437.849 1511.81 421.522 1511.81 412.006H1505.81C1505.81 421.696 1506.43 438.165 1507.65 461.358L1513.64 461.043ZM1511.81 412.006V327.533H1505.81V412.006H1511.81ZM1508.81 330.533H1542.87V324.533H1508.81V330.533ZM1539.87 327.533V506H1545.87V327.533H1539.87ZM1710.84 482.562L1708.79 480.368L1708.79 480.373L1710.84 482.562ZM1587.91 506H1584.91V509H1587.91V506ZM1587.91 327.533V324.533H1584.91V327.533H1587.91ZM1625.76 358.539V355.539H1622.76V358.539H1625.76ZM1625.76 474.75H1622.76V477.75H1625.76V474.75ZM1732.99 415.058C1732.99 443.852 1724.79 465.46 1708.79 480.368L1712.88 484.757C1730.42 468.415 1738.99 445.02 1738.99 415.058H1732.99ZM1708.79 480.373C1692.84 495.306 1669.56 503 1638.45 503V509C1670.49 509 1695.47 501.069 1712.89 484.752L1708.79 480.373ZM1638.45 503H1587.91V509H1638.45V503ZM1590.91 506V327.533H1584.91V506H1590.91ZM1587.91 330.533H1643.94V324.533H1587.91V330.533ZM1643.94 330.533C1672.55 330.533 1694.34 338.075 1709.74 352.775L1713.89 348.434C1697.06 332.373 1673.6 324.533 1643.94 324.533V330.533ZM1709.74 352.775C1725.13 367.46 1732.99 388.081 1732.99 415.058H1738.99C1738.99 386.859 1730.73 364.511 1713.89 348.434L1709.74 352.775ZM1699.68 416.034C1699.68 396.492 1695.37 381.275 1686.23 370.927C1677.03 360.508 1663.39 355.539 1645.9 355.539V361.539C1662.26 361.539 1674.01 366.153 1681.73 374.899C1689.52 383.716 1693.68 397.246 1693.68 416.034H1699.68ZM1645.9 355.539H1625.76V361.539H1645.9V355.539ZM1622.76 358.539V474.75H1628.76V358.539H1622.76ZM1625.76 477.75H1641.99V471.75H1625.76V477.75ZM1641.99 477.75C1660.74 477.75 1675.34 472.708 1685.2 462.116C1695.03 451.564 1699.68 436.018 1699.68 416.034H1693.68C1693.68 435.195 1689.21 449.006 1680.81 458.026C1672.45 467.006 1659.7 471.75 1641.99 471.75V477.75Z" fill="#06D6A0"/>
<defs>
<linearGradient id="paint0_linear" x1="89.0122" y1="2.71585e-06" x2="1390.58" y2="664.36" gradientUnits="userSpaceOnUse">
<stop stop-color="#06D6A0"/>
<stop offset="1" stop-color="#1B9AAA"/>
</linearGradient>
</defs>
</svg>
