<svg width="3157" height="346" viewBox="0 0 3157 346" fill="none" xmlns="http://www.w3.org/2000/svg">
<path d="M19.1761 267H40.1278V180.707C40.1278 162.241 54.6875 148.747 74.5739 148.747C80.1669 148.747 85.9375 149.812 87.358 150.168V128.861C84.9609 128.683 79.4567 128.506 76.3494 128.506C60.0142 128.506 45.8097 137.739 40.8381 151.233H39.4176V130.636H19.1761V267ZM165.217 269.841C192.915 269.841 213.157 255.991 219.549 235.395L199.308 229.713C193.981 243.918 181.641 251.02 165.217 251.02C140.625 251.02 123.668 235.129 122.692 205.92H221.68V197.043C221.68 146.261 191.495 128.861 163.086 128.861C126.154 128.861 101.651 157.98 101.651 199.884C101.651 241.787 125.799 269.841 165.217 269.841ZM122.692 187.81C124.112 166.592 139.116 147.682 163.086 147.682C185.813 147.682 200.373 164.727 200.373 187.81H122.692ZM293.679 270.196C317.472 270.196 329.901 257.412 334.162 248.534H335.227V267H356.179V177.156C356.179 133.832 323.153 128.861 305.753 128.861C285.156 128.861 261.719 135.963 251.065 160.821L270.952 167.923C275.568 157.98 286.488 147.327 306.463 147.327C325.728 147.327 335.227 157.536 335.227 175.026V175.736C335.227 185.857 324.929 184.969 300.071 188.165C274.769 191.45 247.159 197.043 247.159 228.293C247.159 254.926 267.756 270.196 293.679 270.196ZM296.875 251.375C280.185 251.375 268.111 243.918 268.111 229.358C268.111 213.378 282.67 208.406 299.006 206.276C307.884 205.21 331.676 202.724 335.227 198.463V217.639C335.227 234.685 321.733 251.375 296.875 251.375ZM415.372 184.969C415.372 161.176 430.109 147.682 450.173 147.682C469.616 147.682 481.423 160.377 481.423 181.773V267H502.375V180.352C502.375 145.551 483.82 128.861 456.21 128.861C435.613 128.861 422.829 138.094 416.437 151.943H414.662V130.636H394.42V267H415.372V184.969ZM540.661 267H561.612V130.636H540.661V267ZM551.314 107.909C559.482 107.909 566.229 101.517 566.229 93.7045C566.229 85.892 559.482 79.5 551.314 79.5C543.146 79.5 536.399 85.892 536.399 93.7045C536.399 101.517 543.146 107.909 551.314 107.909ZM599.987 267H620.938V181.773C620.938 161.798 635.498 147.682 651.833 147.682C667.725 147.682 678.822 158.069 678.822 173.605V267H700.129V178.222C700.129 160.643 711.137 147.682 730.313 147.682C745.228 147.682 758.012 155.583 758.012 175.736V267H778.964V175.736C778.964 143.687 761.741 128.861 737.416 128.861C717.884 128.861 703.591 137.827 696.578 151.943H695.157C688.41 137.384 676.514 128.861 658.58 128.861C640.825 128.861 627.686 137.384 622.004 151.943H620.228V130.636H599.987V267ZM857.4 270.196C881.192 270.196 893.621 257.412 897.883 248.534H898.948V267H919.9V177.156C919.9 133.832 886.874 128.861 869.474 128.861C848.877 128.861 825.439 135.963 814.786 160.821L834.672 167.923C839.289 157.98 850.209 147.327 870.184 147.327C889.449 147.327 898.948 157.536 898.948 175.026V175.736C898.948 185.857 888.65 184.969 863.792 188.165C838.49 191.45 810.88 197.043 810.88 228.293C810.88 254.926 831.476 270.196 857.4 270.196ZM860.596 251.375C843.905 251.375 831.831 243.918 831.831 229.358C831.831 213.378 846.391 208.406 862.726 206.276C871.604 205.21 895.397 202.724 898.948 198.463V217.639C898.948 234.685 885.454 251.375 860.596 251.375ZM1017.44 130.636H988.326V97.9659H967.374V130.636H946.777V148.392H967.374V233.619C967.374 257.412 986.55 268.776 1004.31 268.776C1012.12 268.776 1017.09 267.355 1019.93 266.29L1015.67 247.469C1013.89 247.824 1011.05 248.534 1006.44 248.534C997.203 248.534 988.326 245.693 988.326 227.938V148.392H1017.44V130.636ZM1104.67 269.841C1132.37 269.841 1152.61 255.991 1159 235.395L1138.76 229.713C1133.43 243.918 1121.09 251.02 1104.67 251.02C1080.08 251.02 1063.12 235.129 1062.14 205.92H1161.13V197.043C1161.13 146.261 1130.95 128.861 1102.54 128.861C1065.61 128.861 1041.1 157.98 1041.1 199.884C1041.1 241.787 1065.25 269.841 1104.67 269.841ZM1062.14 187.81C1063.57 166.592 1078.57 147.682 1102.54 147.682C1125.27 147.682 1139.83 164.727 1139.83 187.81H1062.14ZM1244.5 269.841C1270.77 269.841 1279.65 253.506 1284.27 246.048H1286.75V267H1307V85.1818H1286.04V152.298H1284.27C1279.65 145.196 1271.48 128.861 1244.85 128.861C1210.4 128.861 1186.61 156.205 1186.61 199.173C1186.61 242.497 1210.4 269.841 1244.5 269.841ZM1247.34 251.02C1221.06 251.02 1207.56 227.938 1207.56 198.818C1207.56 170.054 1220.7 147.682 1247.34 147.682C1272.9 147.682 1286.4 168.278 1286.4 198.818C1286.4 229.713 1272.55 251.02 1247.34 251.02ZM1363.55 268.42C1372.34 268.42 1379.53 261.229 1379.53 252.44C1379.53 243.651 1372.34 236.46 1363.55 236.46C1354.76 236.46 1347.57 243.651 1347.57 252.44C1347.57 261.229 1354.76 268.42 1363.55 268.42Z" fill="url(#paint0_linear)"/>
<path d="M1458.3 172.518H1455.3V175.518H1458.3V172.518ZM1496.88 165.682L1498.73 168.037L1498.74 168.029L1498.76 168.021L1496.88 165.682ZM1498.22 125.887L1496.24 128.137L1496.25 128.146L1496.25 128.154L1498.22 125.887ZM1458.3 119.539V116.539H1455.3V119.539H1458.3ZM1525.69 188.265L1523.75 185.973L1523.74 185.979L1525.69 188.265ZM1458.3 203.523V200.523H1455.3V203.523H1458.3ZM1458.3 267V270H1461.3V267H1458.3ZM1420.46 267H1417.46V270H1420.46V267ZM1420.46 88.5332V85.5332H1417.46V88.5332H1420.46ZM1526.78 102.571L1524.86 104.876L1524.87 104.883L1524.88 104.891L1526.78 102.571ZM1458.3 175.518H1470.75V169.518H1458.3V175.518ZM1470.75 175.518C1482.7 175.518 1492.2 173.193 1498.73 168.037L1495.02 163.326C1490 167.285 1482.08 169.518 1470.75 169.518V175.518ZM1498.76 168.021C1505.38 162.704 1508.54 155.05 1508.54 145.54H1502.54C1502.54 153.608 1499.93 159.381 1495 163.342L1498.76 168.021ZM1508.54 145.54C1508.54 136.139 1505.94 128.611 1500.18 123.62L1496.25 128.154C1500.26 131.626 1502.54 137.2 1502.54 145.54H1508.54ZM1500.2 123.636C1494.6 118.701 1486.16 116.539 1475.51 116.539V122.539C1485.54 122.539 1492.23 124.609 1496.24 128.137L1500.2 123.636ZM1475.51 116.539H1458.3V122.539H1475.51V116.539ZM1455.3 119.539V172.518H1461.3V119.539H1455.3ZM1540.75 144.197C1540.75 162.731 1534.97 176.494 1523.75 185.973L1527.62 190.557C1540.49 179.691 1546.75 164.075 1546.75 144.197H1540.75ZM1523.74 185.979C1512.51 195.533 1496.25 200.523 1474.54 200.523V206.523C1497.1 206.523 1514.94 201.341 1527.63 190.55L1523.74 185.979ZM1474.54 200.523H1458.3V206.523H1474.54V200.523ZM1455.3 203.523V267H1461.3V203.523H1455.3ZM1458.3 264H1420.46V270H1458.3V264ZM1423.46 267V88.5332H1417.46V267H1423.46ZM1420.46 91.5332H1477.47V85.5332H1420.46V91.5332ZM1477.47 91.5332C1498.74 91.5332 1514.38 96.1387 1524.86 104.876L1528.7 100.267C1516.73 90.2864 1499.49 85.5332 1477.47 85.5332V91.5332ZM1524.88 104.891C1535.32 113.453 1540.75 126.366 1540.75 144.197H1546.75C1546.75 125.082 1540.87 110.244 1528.69 100.252L1524.88 104.891ZM1577.44 267H1574.44V270H1577.44V267ZM1577.44 88.5332V85.5332H1574.44V88.5332H1577.44ZM1615.29 88.5332H1618.29V85.5332H1615.29V88.5332ZM1615.29 235.75H1612.29V238.75H1615.29V235.75ZM1687.67 235.75H1690.67V232.75H1687.67V235.75ZM1687.67 267V270H1690.67V267H1687.67ZM1580.44 267V88.5332H1574.44V267H1580.44ZM1577.44 91.5332H1615.29V85.5332H1577.44V91.5332ZM1612.29 88.5332V235.75H1618.29V88.5332H1612.29ZM1615.29 238.75H1687.67V232.75H1615.29V238.75ZM1684.67 235.75V267H1690.67V235.75H1684.67ZM1687.67 264H1577.44V270H1687.67V264ZM1828.05 267L1825.18 267.874L1825.83 270H1828.05V267ZM1815.11 224.52L1817.98 223.645L1817.34 221.52H1815.11V224.52ZM1750.05 224.52V221.52H1747.83L1747.18 223.645L1750.05 224.52ZM1737.11 267V270H1739.33L1739.98 267.874L1737.11 267ZM1696.34 267L1693.51 266.005L1692.11 270H1696.34V267ZM1759.33 87.8008V84.8008H1757.2L1756.5 86.806L1759.33 87.8008ZM1805.59 87.8008L1808.42 86.8025L1807.72 84.8008H1805.59V87.8008ZM1868.83 267V270H1873.07L1871.65 266.002L1868.83 267ZM1806.08 192.781V195.781H1810.15L1808.95 191.891L1806.08 192.781ZM1785.82 127.474L1782.94 128.31L1782.94 128.331L1782.95 128.353L1785.82 127.474ZM1782.64 115.511L1785.57 114.86L1779.74 114.762L1782.64 115.511ZM1759.57 192.781L1756.71 191.896L1755.51 195.781H1759.57V192.781ZM1830.92 266.126L1817.98 223.645L1812.24 225.394L1825.18 267.874L1830.92 266.126ZM1815.11 221.52H1750.05V227.52H1815.11V221.52ZM1747.18 223.645L1734.24 266.126L1739.98 267.874L1752.92 225.394L1747.18 223.645ZM1737.11 264H1696.34V270H1737.11V264ZM1699.17 267.995L1762.16 88.7956L1756.5 86.806L1693.51 266.005L1699.17 267.995ZM1759.33 90.8008H1805.59V84.8008H1759.33V90.8008ZM1802.76 88.799L1866 267.998L1871.65 266.002L1808.42 86.8025L1802.76 88.799ZM1868.83 264H1828.05V270H1868.83V264ZM1808.95 191.891C1796.98 153.394 1790.23 131.633 1788.69 126.595L1782.95 128.353C1784.5 133.406 1791.25 155.183 1803.22 193.672L1808.95 191.891ZM1788.7 126.637C1787.24 121.615 1786.2 117.698 1785.57 114.86L1779.71 116.162C1780.39 119.183 1781.46 123.241 1782.94 128.31L1788.7 126.637ZM1779.74 114.762C1777.07 125.094 1769.41 150.773 1756.71 191.896L1762.44 193.667C1775.13 152.595 1782.84 126.761 1785.55 116.26L1779.74 114.762ZM1759.57 195.781H1806.08V189.781H1759.57V195.781ZM1946.95 162.02L1944.27 163.368L1946.94 168.675L1949.63 163.375L1946.95 162.02ZM1984.18 88.5332V85.5332H1982.34L1981.51 87.1774L1984.18 88.5332ZM2024.95 88.5332L2027.59 89.965L2030 85.5332H2024.95V88.5332ZM1965.75 197.542L1963.11 196.11L1962.75 196.78V197.542H1965.75ZM1965.75 267V270H1968.75V267H1965.75ZM1928.15 267H1925.15V270H1928.15V267ZM1928.15 198.763H1931.15V198.008L1930.79 197.343L1928.15 198.763ZM1868.95 88.5332V85.5332H1863.93L1866.3 89.9527L1868.95 88.5332ZM1909.96 88.5332L1912.64 87.1844L1911.81 85.5332H1909.96V88.5332ZM1949.63 163.375L1986.86 89.8891L1981.51 87.1774L1944.27 160.664L1949.63 163.375ZM1984.18 91.5332H2024.95V85.5332H1984.18V91.5332ZM2022.32 87.1014L1963.11 196.11L1968.39 198.974L2027.59 89.965L2022.32 87.1014ZM1962.75 197.542V267H1968.75V197.542H1962.75ZM1965.75 264H1928.15V270H1965.75V264ZM1931.15 267V198.763H1925.15V267H1931.15ZM1930.79 197.343L1871.59 87.1137L1866.3 89.9527L1925.51 200.182L1930.79 197.343ZM1868.95 91.5332H1909.96V85.5332H1868.95V91.5332ZM1907.28 89.882L1944.27 163.368L1949.63 160.671L1912.64 87.1844L1907.28 89.882ZM2115.16 166.78V163.78H2112.16V166.78H2115.16ZM2185.96 166.78H2188.96V163.78H2185.96V166.78ZM2185.96 259.31L2186.89 262.162L2188.96 261.486V259.31H2185.96ZM2153.49 267.122L2153.07 264.153L2153.05 264.155L2153.04 264.157L2153.49 267.122ZM2060.72 245.76L2058.48 247.757L2058.49 247.763L2058.49 247.769L2060.72 245.76ZM2064.14 110.14L2062.04 107.992L2062.04 107.997L2064.14 110.14ZM2185.72 96.9561L2188.49 98.1067L2189.63 95.3719L2186.91 94.2007L2185.72 96.9561ZM2173.15 127.229L2171.8 129.913L2174.68 131.352L2175.92 128.38L2173.15 127.229ZM2090.26 222.688L2087.88 224.519L2087.89 224.529L2087.9 224.539L2090.26 222.688ZM2148.98 235.506L2149.56 238.448L2151.98 237.965V235.506H2148.98ZM2148.98 198.274H2151.98V195.274H2148.98V198.274ZM2115.16 198.274H2112.16V201.274H2115.16V198.274ZM2115.16 169.78H2185.96V163.78H2115.16V169.78ZM2182.96 166.78V259.31H2188.96V166.78H2182.96ZM2185.03 256.458C2173.7 260.156 2163.04 262.716 2153.07 264.153L2153.92 270.091C2164.29 268.598 2175.28 265.95 2186.89 262.162L2185.03 256.458ZM2153.04 264.157C2143.1 265.679 2132.92 266.441 2122.49 266.441V272.441C2133.21 272.441 2143.7 271.658 2153.95 270.087L2153.04 264.157ZM2122.49 266.441C2096.16 266.441 2076.48 258.748 2062.95 243.75L2058.49 247.769C2073.45 264.348 2094.94 272.441 2122.49 272.441V266.441ZM2062.96 243.762C2049.45 228.626 2042.48 206.697 2042.48 177.522H2036.48C2036.48 207.592 2043.67 231.155 2058.48 247.757L2062.96 243.762ZM2042.48 177.522C2042.48 149.305 2050.51 127.697 2066.24 112.282L2062.04 107.997C2044.89 124.809 2036.48 148.123 2036.48 177.522H2042.48ZM2066.23 112.287C2082.05 96.8559 2104.09 88.9697 2132.74 88.9697V82.9697C2102.96 82.9697 2079.26 91.1968 2062.04 107.992L2066.23 112.287ZM2132.74 88.9697C2150.64 88.9697 2167.9 92.5467 2184.53 99.7114L2186.91 94.2007C2169.53 86.717 2151.46 82.9697 2132.74 82.9697V88.9697ZM2182.95 95.8054L2170.38 126.079L2175.92 128.38L2188.49 98.1067L2182.95 95.8054ZM2174.49 124.546C2161.07 117.835 2147.06 114.464 2132.5 114.464V120.464C2146.09 120.464 2159.19 123.603 2171.8 129.913L2174.49 124.546ZM2132.5 114.464C2115.39 114.464 2101.44 120.247 2090.96 131.941L2095.42 135.946C2104.64 125.667 2116.89 120.464 2132.5 120.464V114.464ZM2090.96 131.941C2080.5 143.609 2075.42 159.159 2075.42 178.255H2081.42C2081.42 160.242 2086.19 146.251 2095.42 135.946L2090.96 131.941ZM2075.42 178.255C2075.42 197.972 2079.43 213.536 2087.88 224.519L2092.64 220.858C2085.3 211.333 2081.42 197.275 2081.42 178.255H2075.42ZM2087.9 224.539C2096.54 235.566 2109.05 240.947 2124.93 240.947V234.947C2110.54 234.947 2099.93 230.156 2092.62 220.838L2087.9 224.539ZM2124.93 240.947C2133.03 240.947 2141.24 240.112 2149.56 238.448L2148.39 232.564C2140.43 234.155 2132.62 234.947 2124.93 234.947V240.947ZM2151.98 235.506V198.274H2145.98V235.506H2151.98ZM2148.98 195.274H2115.16V201.274H2148.98V195.274ZM2118.16 198.274V166.78H2112.16V198.274H2118.16ZM2266.41 167.757H2263.41V170.757H2266.41V167.757ZM2304.86 124.91L2303.28 127.46L2303.29 127.465L2303.3 127.47L2304.86 124.91ZM2266.41 119.539V116.539H2263.41V119.539H2266.41ZM2266.41 198.519V195.519H2263.41V198.519H2266.41ZM2266.41 267V270H2269.41V267H2266.41ZM2228.57 267H2225.57V270H2228.57V267ZM2228.57 88.5332V85.5332H2225.57V88.5332H2228.57ZM2334.4 101.839L2332.58 104.225L2332.59 104.233L2334.4 101.839ZM2343.19 170.076L2345.64 171.813L2345.64 171.801L2343.19 170.076ZM2318.65 189.241L2317.45 186.494L2314.17 187.932L2316.16 190.91L2318.65 189.241ZM2371.14 267V270H2376.88L2373.61 265.289L2371.14 267ZM2329.15 267L2326.61 268.585L2327.49 270H2329.15V267ZM2286.55 198.519L2289.1 196.934L2288.22 195.519H2286.55V198.519ZM2266.41 170.757H2278.62V164.757H2266.41V170.757ZM2278.62 170.757C2290.8 170.757 2300.38 168.747 2306.82 164.233L2303.38 159.318C2298.44 162.779 2290.36 164.757 2278.62 164.757V170.757ZM2306.82 164.233C2313.51 159.553 2316.65 152.247 2316.65 142.977H2310.65C2310.65 150.796 2308.09 156.022 2303.38 159.318L2306.82 164.233ZM2316.65 142.977C2316.65 133.749 2313.39 126.608 2306.42 122.35L2303.3 127.47C2308.05 130.374 2310.65 135.277 2310.65 142.977H2316.65ZM2306.44 122.36C2299.94 118.333 2290.26 116.539 2277.88 116.539V122.539C2289.92 122.539 2298.22 124.325 2303.28 127.46L2306.44 122.36ZM2277.88 116.539H2266.41V122.539H2277.88V116.539ZM2263.41 119.539V167.757H2269.41V119.539H2263.41ZM2263.41 198.519V267H2269.41V198.519H2263.41ZM2266.41 264H2228.57V270H2266.41V264ZM2231.57 267V88.5332H2225.57V267H2231.57ZM2228.57 91.5332H2280.57V85.5332H2228.57V91.5332ZM2280.57 91.5332C2304.56 91.5332 2321.71 95.9394 2332.58 104.225L2336.22 99.453C2323.82 89.9974 2305.08 85.5332 2280.57 85.5332V91.5332ZM2332.59 104.233C2343.3 112.322 2348.86 124.712 2348.86 142H2354.86C2354.86 123.318 2348.77 108.933 2336.21 99.4449L2332.59 104.233ZM2348.86 142C2348.86 151.91 2346.14 160.66 2340.74 168.351L2345.64 171.801C2351.79 163.053 2354.86 153.086 2354.86 142H2348.86ZM2340.74 168.339C2335.33 175.968 2327.61 182.038 2317.45 186.494L2319.86 191.989C2330.86 187.167 2339.5 180.46 2345.64 171.813L2340.74 168.339ZM2316.16 190.91C2343.01 231.025 2360.52 256.967 2368.68 268.711L2373.61 265.289C2365.49 253.595 2348.01 227.698 2321.15 187.572L2316.16 190.91ZM2371.14 264H2329.15V270H2371.14V264ZM2331.7 265.415L2289.1 196.934L2284 200.103L2326.61 268.585L2331.7 265.415ZM2286.55 195.519H2266.41V201.519H2286.55V195.519ZM2407.64 109.285L2405.46 107.233L2405.45 107.233L2407.64 109.285ZM2533.74 109.407L2531.53 111.435L2531.54 111.442L2533.74 109.407ZM2436.82 132.479L2439.21 134.291L2439.22 134.282L2436.82 132.479ZM2552.59 177.522C2552.59 206.59 2545.39 228.464 2531.42 243.603L2535.82 247.673C2551.15 231.073 2558.59 207.537 2558.59 177.522H2552.59ZM2531.42 243.603C2517.48 258.702 2497.38 266.441 2470.63 266.441V272.441C2498.58 272.441 2520.47 264.312 2535.82 247.673L2531.42 243.603ZM2470.63 266.441C2443.89 266.441 2423.79 258.702 2409.85 243.603L2405.44 247.673C2420.8 264.312 2442.69 272.441 2470.63 272.441V266.441ZM2409.85 243.603C2395.88 228.467 2388.67 206.514 2388.67 177.278H2382.67C2382.67 207.45 2390.11 231.07 2405.44 247.673L2409.85 243.603ZM2388.67 177.278C2388.67 148.039 2395.88 126.221 2409.83 111.337L2405.45 107.233C2390.11 123.599 2382.67 147.11 2382.67 177.278H2388.67ZM2409.83 111.337C2423.85 96.3913 2444.04 88.7256 2470.88 88.7256V82.7256C2442.86 82.7256 2420.9 90.7663 2405.46 107.233L2409.83 111.337ZM2470.88 88.7256C2497.71 88.7256 2517.76 96.4298 2531.53 111.435L2535.95 107.379C2520.75 90.8091 2498.89 82.7256 2470.88 82.7256V88.7256ZM2531.54 111.442C2545.43 126.495 2552.59 148.366 2552.59 177.522H2558.59C2558.59 147.434 2551.19 123.895 2535.95 107.373L2531.54 111.442ZM2422.34 177.522C2422.34 197.759 2426.17 213.532 2434.3 224.366L2439.1 220.766C2432.09 211.418 2428.34 197.162 2428.34 177.522H2422.34ZM2434.3 224.366C2442.54 235.364 2454.84 240.703 2470.63 240.703V234.703C2456.31 234.703 2445.99 229.951 2439.1 220.766L2434.3 224.366ZM2470.63 240.703C2486.46 240.703 2498.76 235.401 2506.99 224.462C2515.11 213.683 2518.92 197.873 2518.92 177.522H2512.92C2512.92 197.293 2509.19 211.573 2502.2 220.854C2495.34 229.975 2485 234.703 2470.63 234.703V240.703ZM2518.92 177.522C2518.92 157.135 2515.13 141.298 2507.06 130.5C2498.87 119.538 2486.63 114.22 2470.88 114.22V120.22C2485.15 120.22 2495.43 124.952 2502.26 134.091C2509.2 143.394 2512.92 157.708 2512.92 177.522H2518.92ZM2470.88 114.22C2455.07 114.22 2442.74 119.606 2434.42 130.675L2439.22 134.282C2446.19 125.006 2456.57 120.22 2470.88 120.22V114.22ZM2434.43 130.666C2426.21 141.502 2422.34 157.281 2422.34 177.522H2428.34C2428.34 157.888 2432.12 143.637 2439.21 134.291L2434.43 130.666ZM2737.84 88.5332H2740.84V85.5332H2737.84V88.5332ZM2728.93 238.68L2726.36 237.139L2726.35 237.147L2726.35 237.155L2728.93 238.68ZM2610.4 251.863L2608.36 254.061L2608.37 254.068L2610.4 251.863ZM2591.36 88.5332V85.5332H2588.36V88.5332H2591.36ZM2629.08 88.5332H2632.08V85.5332H2629.08V88.5332ZM2637.38 228.06L2635.11 230.017L2637.38 228.06ZM2691.7 228.06L2689.43 226.1L2689.43 226.102L2691.7 228.06ZM2700.12 88.5332V85.5332H2697.12V88.5332H2700.12ZM2734.84 88.5332V204.012H2740.84V88.5332H2734.84ZM2734.84 204.012C2734.84 216.73 2731.98 227.738 2726.36 237.139L2731.51 240.22C2737.76 229.764 2740.84 217.661 2740.84 204.012H2734.84ZM2726.35 237.155C2720.82 246.53 2712.78 253.744 2702.13 258.796L2704.71 264.217C2716.36 258.69 2725.33 250.686 2731.52 240.204L2726.35 237.155ZM2702.13 258.796C2691.47 263.856 2678.74 266.441 2663.87 266.441V272.441C2679.43 272.441 2693.07 269.737 2704.71 264.217L2702.13 258.796ZM2663.87 266.441C2641.42 266.441 2624.42 260.717 2612.44 249.659L2608.37 254.068C2621.78 266.447 2640.42 272.441 2663.87 272.441V266.441ZM2612.44 249.666C2600.47 238.535 2594.36 223.278 2594.36 203.523H2588.36C2588.36 224.621 2594.94 241.591 2608.36 254.061L2612.44 249.666ZM2594.36 203.523V88.5332H2588.36V203.523H2594.36ZM2591.36 91.5332H2629.08V85.5332H2591.36V91.5332ZM2626.08 88.5332V197.786H2632.08V88.5332H2626.08ZM2626.08 197.786C2626.08 211.84 2628.89 222.793 2635.11 230.017L2639.65 226.102C2634.8 220.468 2632.08 211.239 2632.08 197.786H2626.08ZM2635.11 230.017C2641.45 237.384 2651.64 240.703 2664.85 240.703V234.703C2652.5 234.703 2644.38 231.593 2639.65 226.102L2635.11 230.017ZM2664.85 240.703C2677.68 240.703 2687.65 237.366 2693.97 230.017L2689.43 226.102C2684.69 231.612 2676.75 234.703 2664.85 234.703V240.703ZM2693.97 230.019C2700.27 222.717 2703.12 211.684 2703.12 197.542H2697.12C2697.12 211.069 2694.36 220.381 2689.43 226.1L2693.97 230.019ZM2703.12 197.542V88.5332H2697.12V197.542H2703.12ZM2700.12 91.5332H2737.84V85.5332H2700.12V91.5332ZM2939.87 267V270H2942.87V267H2939.87ZM2891.77 267L2889.17 268.496L2890.04 270H2891.77V267ZM2814.14 131.99L2816.74 130.495L2815.87 128.99H2814.14V131.99ZM2813.04 131.99V128.99H2809.84L2810.05 132.184L2813.04 131.99ZM2815.36 267V270H2818.36V267H2815.36ZM2781.54 267H2778.54V270H2781.54V267ZM2781.54 88.5332V85.5332H2778.54V88.5332H2781.54ZM2829.27 88.5332L2831.87 87.0282L2831 85.5332H2829.27V88.5332ZM2906.79 222.2L2904.19 223.705L2905.06 225.2H2906.79V222.2ZM2907.64 222.2V225.2H2910.81L2910.64 222.043L2907.64 222.2ZM2905.81 88.5332V85.5332H2902.81V88.5332H2905.81ZM2939.87 88.5332H2942.87V85.5332H2939.87V88.5332ZM2939.87 264H2891.77V270H2939.87V264ZM2894.38 265.504L2816.74 130.495L2811.54 133.486L2889.17 268.496L2894.38 265.504ZM2814.14 128.99H2813.04V134.99H2814.14V128.99ZM2810.05 132.184C2811.59 156.027 2812.36 172.95 2812.36 183.016H2818.36C2818.36 172.737 2817.58 155.643 2816.03 131.796L2810.05 132.184ZM2812.36 183.016V267H2818.36V183.016H2812.36ZM2815.36 264H2781.54V270H2815.36V264ZM2784.54 267V88.5332H2778.54V267H2784.54ZM2781.54 91.5332H2829.27V85.5332H2781.54V91.5332ZM2826.68 90.0382L2904.19 223.705L2909.38 220.695L2831.87 87.0282L2826.68 90.0382ZM2906.79 225.2H2907.64V219.2H2906.79V225.2ZM2910.64 222.043C2909.42 198.849 2908.81 182.522 2908.81 173.006H2902.81C2902.81 182.696 2903.43 199.165 2904.65 222.358L2910.64 222.043ZM2908.81 173.006V88.5332H2902.81V173.006H2908.81ZM2905.81 91.5332H2939.87V85.5332H2905.81V91.5332ZM2936.87 88.5332V267H2942.87V88.5332H2936.87ZM3107.84 243.562L3105.79 241.368L3105.79 241.373L3107.84 243.562ZM2984.91 267H2981.91V270H2984.91V267ZM2984.91 88.5332V85.5332H2981.91V88.5332H2984.91ZM3022.76 119.539V116.539H3019.76V119.539H3022.76ZM3022.76 235.75H3019.76V238.75H3022.76V235.75ZM3129.99 176.058C3129.99 204.852 3121.79 226.46 3105.79 241.368L3109.88 245.757C3127.42 229.415 3135.99 206.02 3135.99 176.058H3129.99ZM3105.79 241.373C3089.84 256.306 3066.56 264 3035.45 264V270C3067.49 270 3092.47 262.069 3109.89 245.752L3105.79 241.373ZM3035.45 264H2984.91V270H3035.45V264ZM2987.91 267V88.5332H2981.91V267H2987.91ZM2984.91 91.5332H3040.94V85.5332H2984.91V91.5332ZM3040.94 91.5332C3069.55 91.5332 3091.34 99.0746 3106.74 113.775L3110.89 109.434C3094.06 93.3726 3070.6 85.5332 3040.94 85.5332V91.5332ZM3106.74 113.775C3122.13 128.46 3129.99 149.081 3129.99 176.058H3135.99C3135.99 147.859 3127.73 125.511 3110.89 109.434L3106.74 113.775ZM3096.68 177.034C3096.68 157.492 3092.37 142.275 3083.23 131.927C3074.03 121.508 3060.39 116.539 3042.9 116.539V122.539C3059.26 122.539 3071.01 127.153 3078.73 135.899C3086.52 144.716 3090.68 158.246 3090.68 177.034H3096.68ZM3042.9 116.539H3022.76V122.539H3042.9V116.539ZM3019.76 119.539V235.75H3025.76V119.539H3019.76ZM3022.76 238.75H3038.99V232.75H3022.76V238.75ZM3038.99 238.75C3057.74 238.75 3072.34 233.708 3082.2 223.116C3092.03 212.564 3096.68 197.018 3096.68 177.034H3090.68C3090.68 196.195 3086.21 210.006 3077.81 219.026C3069.45 228.006 3056.7 232.75 3038.99 232.75V238.75Z" fill="#1B9AAA"/>
<path d="M1467.3 178.518H1464.3V181.518H1467.3V178.518ZM1505.88 171.682L1507.73 174.037L1507.74 174.029L1507.76 174.021L1505.88 171.682ZM1507.22 131.887L1505.24 134.137L1505.25 134.146L1505.25 134.154L1507.22 131.887ZM1467.3 125.539V122.539H1464.3V125.539H1467.3ZM1534.69 194.265L1532.75 191.973L1532.74 191.979L1534.69 194.265ZM1467.3 209.523V206.523H1464.3V209.523H1467.3ZM1467.3 273V276H1470.3V273H1467.3ZM1429.46 273H1426.46V276H1429.46V273ZM1429.46 94.5332V91.5332H1426.46V94.5332H1429.46ZM1535.78 108.571L1533.86 110.876L1533.87 110.883L1533.88 110.891L1535.78 108.571ZM1467.3 181.518H1479.75V175.518H1467.3V181.518ZM1479.75 181.518C1491.7 181.518 1501.2 179.193 1507.73 174.037L1504.02 169.326C1499 173.285 1491.08 175.518 1479.75 175.518V181.518ZM1507.76 174.021C1514.38 168.704 1517.54 161.05 1517.54 151.54H1511.54C1511.54 159.608 1508.93 165.381 1504 169.342L1507.76 174.021ZM1517.54 151.54C1517.54 142.139 1514.94 134.611 1509.18 129.62L1505.25 134.154C1509.26 137.626 1511.54 143.2 1511.54 151.54H1517.54ZM1509.2 129.636C1503.6 124.701 1495.16 122.539 1484.51 122.539V128.539C1494.54 128.539 1501.23 130.609 1505.24 134.137L1509.2 129.636ZM1484.51 122.539H1467.3V128.539H1484.51V122.539ZM1464.3 125.539V178.518H1470.3V125.539H1464.3ZM1549.75 150.197C1549.75 168.731 1543.97 182.494 1532.75 191.973L1536.62 196.557C1549.49 185.691 1555.75 170.075 1555.75 150.197H1549.75ZM1532.74 191.979C1521.51 201.533 1505.25 206.523 1483.54 206.523V212.523C1506.1 212.523 1523.94 207.341 1536.63 196.55L1532.74 191.979ZM1483.54 206.523H1467.3V212.523H1483.54V206.523ZM1464.3 209.523V273H1470.3V209.523H1464.3ZM1467.3 270H1429.46V276H1467.3V270ZM1432.46 273V94.5332H1426.46V273H1432.46ZM1429.46 97.5332H1486.47V91.5332H1429.46V97.5332ZM1486.47 97.5332C1507.74 97.5332 1523.38 102.139 1533.86 110.876L1537.7 106.267C1525.73 96.2864 1508.49 91.5332 1486.47 91.5332V97.5332ZM1533.88 110.891C1544.32 119.453 1549.75 132.366 1549.75 150.197H1555.75C1555.75 131.082 1549.87 116.244 1537.69 106.252L1533.88 110.891ZM1586.44 273H1583.44V276H1586.44V273ZM1586.44 94.5332V91.5332H1583.44V94.5332H1586.44ZM1624.29 94.5332H1627.29V91.5332H1624.29V94.5332ZM1624.29 241.75H1621.29V244.75H1624.29V241.75ZM1696.67 241.75H1699.67V238.75H1696.67V241.75ZM1696.67 273V276H1699.67V273H1696.67ZM1589.44 273V94.5332H1583.44V273H1589.44ZM1586.44 97.5332H1624.29V91.5332H1586.44V97.5332ZM1621.29 94.5332V241.75H1627.29V94.5332H1621.29ZM1624.29 244.75H1696.67V238.75H1624.29V244.75ZM1693.67 241.75V273H1699.67V241.75H1693.67ZM1696.67 270H1586.44V276H1696.67V270ZM1837.05 273L1834.18 273.874L1834.83 276H1837.05V273ZM1824.11 230.52L1826.98 229.645L1826.34 227.52H1824.11V230.52ZM1759.05 230.52V227.52H1756.83L1756.18 229.645L1759.05 230.52ZM1746.11 273V276H1748.33L1748.98 273.874L1746.11 273ZM1705.34 273L1702.51 272.005L1701.11 276H1705.34V273ZM1768.33 93.8008V90.8008H1766.2L1765.5 92.806L1768.33 93.8008ZM1814.59 93.8008L1817.42 92.8025L1816.72 90.8008H1814.59V93.8008ZM1877.83 273V276H1882.07L1880.65 272.002L1877.83 273ZM1815.08 198.781V201.781H1819.15L1817.95 197.891L1815.08 198.781ZM1794.82 133.474L1791.94 134.31L1791.94 134.331L1791.95 134.353L1794.82 133.474ZM1791.64 121.511L1794.57 120.86L1788.74 120.762L1791.64 121.511ZM1768.57 198.781L1765.71 197.896L1764.51 201.781H1768.57V198.781ZM1839.92 272.126L1826.98 229.645L1821.24 231.394L1834.18 273.874L1839.92 272.126ZM1824.11 227.52H1759.05V233.52H1824.11V227.52ZM1756.18 229.645L1743.24 272.126L1748.98 273.874L1761.92 231.394L1756.18 229.645ZM1746.11 270H1705.34V276H1746.11V270ZM1708.17 273.995L1771.16 94.7956L1765.5 92.806L1702.51 272.005L1708.17 273.995ZM1768.33 96.8008H1814.59V90.8008H1768.33V96.8008ZM1811.76 94.799L1875 273.998L1880.65 272.002L1817.42 92.8025L1811.76 94.799ZM1877.83 270H1837.05V276H1877.83V270ZM1817.95 197.891C1805.98 159.394 1799.23 137.633 1797.69 132.595L1791.95 134.353C1793.5 139.406 1800.25 161.183 1812.22 199.672L1817.95 197.891ZM1797.7 132.637C1796.24 127.615 1795.2 123.698 1794.57 120.86L1788.71 122.162C1789.39 125.183 1790.46 129.241 1791.94 134.31L1797.7 132.637ZM1788.74 120.762C1786.07 131.094 1778.41 156.773 1765.71 197.896L1771.44 199.667C1784.13 158.595 1791.84 132.761 1794.55 122.26L1788.74 120.762ZM1768.57 201.781H1815.08V195.781H1768.57V201.781ZM1955.95 168.02L1953.27 169.368L1955.94 174.675L1958.63 169.375L1955.95 168.02ZM1993.18 94.5332V91.5332H1991.34L1990.51 93.1774L1993.18 94.5332ZM2033.95 94.5332L2036.59 95.965L2039 91.5332H2033.95V94.5332ZM1974.75 203.542L1972.11 202.11L1971.75 202.78V203.542H1974.75ZM1974.75 273V276H1977.75V273H1974.75ZM1937.15 273H1934.15V276H1937.15V273ZM1937.15 204.763H1940.15V204.008L1939.79 203.343L1937.15 204.763ZM1877.95 94.5332V91.5332H1872.93L1875.3 95.9527L1877.95 94.5332ZM1918.96 94.5332L1921.64 93.1844L1920.81 91.5332H1918.96V94.5332ZM1958.63 169.375L1995.86 95.8891L1990.51 93.1774L1953.27 166.664L1958.63 169.375ZM1993.18 97.5332H2033.95V91.5332H1993.18V97.5332ZM2031.32 93.1014L1972.11 202.11L1977.39 204.974L2036.59 95.965L2031.32 93.1014ZM1971.75 203.542V273H1977.75V203.542H1971.75ZM1974.75 270H1937.15V276H1974.75V270ZM1940.15 273V204.763H1934.15V273H1940.15ZM1939.79 203.343L1880.59 93.1137L1875.3 95.9527L1934.51 206.182L1939.79 203.343ZM1877.95 97.5332H1918.96V91.5332H1877.95V97.5332ZM1916.28 95.882L1953.27 169.368L1958.63 166.671L1921.64 93.1844L1916.28 95.882ZM2124.16 172.78V169.78H2121.16V172.78H2124.16ZM2194.96 172.78H2197.96V169.78H2194.96V172.78ZM2194.96 265.31L2195.89 268.162L2197.96 267.486V265.31H2194.96ZM2162.49 273.122L2162.07 270.153L2162.05 270.155L2162.04 270.157L2162.49 273.122ZM2069.72 251.76L2067.48 253.757L2067.49 253.763L2067.49 253.769L2069.72 251.76ZM2073.14 116.14L2071.04 113.992L2071.04 113.997L2073.14 116.14ZM2194.72 102.956L2197.49 104.107L2198.63 101.372L2195.91 100.201L2194.72 102.956ZM2182.15 133.229L2180.8 135.913L2183.68 137.352L2184.92 134.38L2182.15 133.229ZM2099.26 228.688L2096.88 230.519L2096.89 230.529L2096.9 230.539L2099.26 228.688ZM2157.98 241.506L2158.56 244.448L2160.98 243.965V241.506H2157.98ZM2157.98 204.274H2160.98V201.274H2157.98V204.274ZM2124.16 204.274H2121.16V207.274H2124.16V204.274ZM2124.16 175.78H2194.96V169.78H2124.16V175.78ZM2191.96 172.78V265.31H2197.96V172.78H2191.96ZM2194.03 262.458C2182.7 266.156 2172.04 268.716 2162.07 270.153L2162.92 276.091C2173.29 274.598 2184.28 271.95 2195.89 268.162L2194.03 262.458ZM2162.04 270.157C2152.1 271.679 2141.92 272.441 2131.49 272.441V278.441C2142.21 278.441 2152.7 277.658 2162.95 276.087L2162.04 270.157ZM2131.49 272.441C2105.16 272.441 2085.48 264.748 2071.95 249.75L2067.49 253.769C2082.45 270.348 2103.94 278.441 2131.49 278.441V272.441ZM2071.96 249.762C2058.45 234.626 2051.48 212.697 2051.48 183.522H2045.48C2045.48 213.592 2052.67 237.155 2067.48 253.757L2071.96 249.762ZM2051.48 183.522C2051.48 155.305 2059.51 133.697 2075.24 118.282L2071.04 113.997C2053.89 130.809 2045.48 154.123 2045.48 183.522H2051.48ZM2075.23 118.287C2091.05 102.856 2113.09 94.9697 2141.74 94.9697V88.9697C2111.96 88.9697 2088.26 97.1968 2071.04 113.992L2075.23 118.287ZM2141.74 94.9697C2159.64 94.9697 2176.9 98.5467 2193.53 105.711L2195.91 100.201C2178.53 92.717 2160.46 88.9697 2141.74 88.9697V94.9697ZM2191.95 101.805L2179.38 132.079L2184.92 134.38L2197.49 104.107L2191.95 101.805ZM2183.49 130.546C2170.07 123.835 2156.06 120.464 2141.5 120.464V126.464C2155.09 126.464 2168.19 129.603 2180.8 135.913L2183.49 130.546ZM2141.5 120.464C2124.39 120.464 2110.44 126.247 2099.96 137.941L2104.42 141.946C2113.64 131.667 2125.89 126.464 2141.5 126.464V120.464ZM2099.96 137.941C2089.5 149.609 2084.42 165.159 2084.42 184.255H2090.42C2090.42 166.242 2095.19 152.251 2104.42 141.946L2099.96 137.941ZM2084.42 184.255C2084.42 203.972 2088.43 219.536 2096.88 230.519L2101.64 226.858C2094.3 217.333 2090.42 203.275 2090.42 184.255H2084.42ZM2096.9 230.539C2105.54 241.566 2118.05 246.947 2133.93 246.947V240.947C2119.54 240.947 2108.93 236.156 2101.62 226.838L2096.9 230.539ZM2133.93 246.947C2142.03 246.947 2150.24 246.112 2158.56 244.448L2157.39 238.564C2149.43 240.155 2141.62 240.947 2133.93 240.947V246.947ZM2160.98 241.506V204.274H2154.98V241.506H2160.98ZM2157.98 201.274H2124.16V207.274H2157.98V201.274ZM2127.16 204.274V172.78H2121.16V204.274H2127.16ZM2275.41 173.757H2272.41V176.757H2275.41V173.757ZM2313.86 130.91L2312.28 133.46L2312.29 133.465L2312.3 133.47L2313.86 130.91ZM2275.41 125.539V122.539H2272.41V125.539H2275.41ZM2275.41 204.519V201.519H2272.41V204.519H2275.41ZM2275.41 273V276H2278.41V273H2275.41ZM2237.57 273H2234.57V276H2237.57V273ZM2237.57 94.5332V91.5332H2234.57V94.5332H2237.57ZM2343.4 107.839L2341.58 110.225L2341.59 110.233L2343.4 107.839ZM2352.19 176.076L2354.64 177.813L2354.64 177.801L2352.19 176.076ZM2327.65 195.241L2326.45 192.494L2323.17 193.932L2325.16 196.91L2327.65 195.241ZM2380.14 273V276H2385.88L2382.61 271.289L2380.14 273ZM2338.15 273L2335.61 274.585L2336.49 276H2338.15V273ZM2295.55 204.519L2298.1 202.934L2297.22 201.519H2295.55V204.519ZM2275.41 176.757H2287.62V170.757H2275.41V176.757ZM2287.62 176.757C2299.8 176.757 2309.38 174.747 2315.82 170.233L2312.38 165.318C2307.44 168.779 2299.36 170.757 2287.62 170.757V176.757ZM2315.82 170.233C2322.51 165.553 2325.65 158.247 2325.65 148.977H2319.65C2319.65 156.796 2317.09 162.022 2312.38 165.318L2315.82 170.233ZM2325.65 148.977C2325.65 139.749 2322.39 132.608 2315.42 128.35L2312.3 133.47C2317.05 136.374 2319.65 141.277 2319.65 148.977H2325.65ZM2315.44 128.36C2308.94 124.333 2299.26 122.539 2286.88 122.539V128.539C2298.92 128.539 2307.22 130.325 2312.28 133.46L2315.44 128.36ZM2286.88 122.539H2275.41V128.539H2286.88V122.539ZM2272.41 125.539V173.757H2278.41V125.539H2272.41ZM2272.41 204.519V273H2278.41V204.519H2272.41ZM2275.41 270H2237.57V276H2275.41V270ZM2240.57 273V94.5332H2234.57V273H2240.57ZM2237.57 97.5332H2289.57V91.5332H2237.57V97.5332ZM2289.57 97.5332C2313.56 97.5332 2330.71 101.939 2341.58 110.225L2345.22 105.453C2332.82 95.9974 2314.08 91.5332 2289.57 91.5332V97.5332ZM2341.59 110.233C2352.3 118.322 2357.86 130.712 2357.86 148H2363.86C2363.86 129.318 2357.77 114.933 2345.21 105.445L2341.59 110.233ZM2357.86 148C2357.86 157.91 2355.14 166.66 2349.74 174.351L2354.64 177.801C2360.79 169.053 2363.86 159.086 2363.86 148H2357.86ZM2349.74 174.339C2344.33 181.968 2336.61 188.038 2326.45 192.494L2328.86 197.989C2339.86 193.167 2348.5 186.46 2354.64 177.813L2349.74 174.339ZM2325.16 196.91C2352.01 237.025 2369.52 262.967 2377.68 274.711L2382.61 271.289C2374.49 259.595 2357.01 233.698 2330.15 193.572L2325.16 196.91ZM2380.14 270H2338.15V276H2380.14V270ZM2340.7 271.415L2298.1 202.934L2293 206.103L2335.61 274.585L2340.7 271.415ZM2295.55 201.519H2275.41V207.519H2295.55V201.519ZM2416.64 115.285L2414.46 113.233L2414.45 113.233L2416.64 115.285ZM2542.74 115.407L2540.53 117.435L2540.54 117.442L2542.74 115.407ZM2445.82 138.479L2448.21 140.291L2448.22 140.282L2445.82 138.479ZM2561.59 183.522C2561.59 212.59 2554.39 234.464 2540.42 249.603L2544.82 253.673C2560.15 237.073 2567.59 213.537 2567.59 183.522H2561.59ZM2540.42 249.603C2526.48 264.702 2506.38 272.441 2479.63 272.441V278.441C2507.58 278.441 2529.47 270.312 2544.82 253.673L2540.42 249.603ZM2479.63 272.441C2452.89 272.441 2432.79 264.702 2418.85 249.603L2414.44 253.673C2429.8 270.312 2451.69 278.441 2479.63 278.441V272.441ZM2418.85 249.603C2404.88 234.467 2397.67 212.514 2397.67 183.278H2391.67C2391.67 213.45 2399.11 237.07 2414.44 253.673L2418.85 249.603ZM2397.67 183.278C2397.67 154.039 2404.88 132.221 2418.83 117.337L2414.45 113.233C2399.11 129.599 2391.67 153.11 2391.67 183.278H2397.67ZM2418.83 117.337C2432.85 102.391 2453.04 94.7256 2479.88 94.7256V88.7256C2451.86 88.7256 2429.9 96.7663 2414.46 113.233L2418.83 117.337ZM2479.88 94.7256C2506.71 94.7256 2526.76 102.43 2540.53 117.435L2544.95 113.379C2529.75 96.8091 2507.89 88.7256 2479.88 88.7256V94.7256ZM2540.54 117.442C2554.43 132.495 2561.59 154.366 2561.59 183.522H2567.59C2567.59 153.434 2560.19 129.895 2544.95 113.373L2540.54 117.442ZM2431.34 183.522C2431.34 203.759 2435.17 219.532 2443.3 230.366L2448.1 226.766C2441.09 217.418 2437.34 203.162 2437.34 183.522H2431.34ZM2443.3 230.366C2451.54 241.364 2463.84 246.703 2479.63 246.703V240.703C2465.31 240.703 2454.99 235.951 2448.1 226.766L2443.3 230.366ZM2479.63 246.703C2495.46 246.703 2507.76 241.401 2515.99 230.462C2524.11 219.683 2527.92 203.873 2527.92 183.522H2521.92C2521.92 203.293 2518.19 217.573 2511.2 226.854C2504.34 235.975 2494 240.703 2479.63 240.703V246.703ZM2527.92 183.522C2527.92 163.135 2524.13 147.298 2516.06 136.5C2507.87 125.538 2495.63 120.22 2479.88 120.22V126.22C2494.15 126.22 2504.43 130.952 2511.26 140.091C2518.2 149.394 2521.92 163.708 2521.92 183.522H2527.92ZM2479.88 120.22C2464.07 120.22 2451.74 125.606 2443.42 136.675L2448.22 140.282C2455.19 131.006 2465.57 126.22 2479.88 126.22V120.22ZM2443.43 136.666C2435.21 147.502 2431.34 163.281 2431.34 183.522H2437.34C2437.34 163.888 2441.12 149.637 2448.21 140.291L2443.43 136.666ZM2746.84 94.5332H2749.84V91.5332H2746.84V94.5332ZM2737.93 244.68L2735.36 243.139L2735.35 243.147L2735.35 243.155L2737.93 244.68ZM2619.4 257.863L2617.36 260.061L2617.37 260.068L2619.4 257.863ZM2600.36 94.5332V91.5332H2597.36V94.5332H2600.36ZM2638.08 94.5332H2641.08V91.5332H2638.08V94.5332ZM2646.38 234.06L2644.11 236.017L2646.38 234.06ZM2700.7 234.06L2698.43 232.1L2698.43 232.102L2700.7 234.06ZM2709.12 94.5332V91.5332H2706.12V94.5332H2709.12ZM2743.84 94.5332V210.012H2749.84V94.5332H2743.84ZM2743.84 210.012C2743.84 222.73 2740.98 233.738 2735.36 243.139L2740.51 246.22C2746.76 235.764 2749.84 223.661 2749.84 210.012H2743.84ZM2735.35 243.155C2729.82 252.53 2721.78 259.744 2711.13 264.796L2713.71 270.217C2725.36 264.69 2734.33 256.686 2740.52 246.204L2735.35 243.155ZM2711.13 264.796C2700.47 269.856 2687.74 272.441 2672.87 272.441V278.441C2688.43 278.441 2702.07 275.737 2713.71 270.217L2711.13 264.796ZM2672.87 272.441C2650.42 272.441 2633.42 266.717 2621.44 255.659L2617.37 260.068C2630.78 272.447 2649.42 278.441 2672.87 278.441V272.441ZM2621.44 255.666C2609.47 244.535 2603.36 229.278 2603.36 209.523H2597.36C2597.36 230.621 2603.94 247.591 2617.36 260.061L2621.44 255.666ZM2603.36 209.523V94.5332H2597.36V209.523H2603.36ZM2600.36 97.5332H2638.08V91.5332H2600.36V97.5332ZM2635.08 94.5332V203.786H2641.08V94.5332H2635.08ZM2635.08 203.786C2635.08 217.84 2637.89 228.793 2644.11 236.017L2648.65 232.102C2643.8 226.468 2641.08 217.239 2641.08 203.786H2635.08ZM2644.11 236.017C2650.45 243.384 2660.64 246.703 2673.85 246.703V240.703C2661.5 240.703 2653.38 237.593 2648.65 232.102L2644.11 236.017ZM2673.85 246.703C2686.68 246.703 2696.65 243.366 2702.97 236.017L2698.43 232.102C2693.69 237.612 2685.75 240.703 2673.85 240.703V246.703ZM2702.97 236.019C2709.27 228.717 2712.12 217.684 2712.12 203.542H2706.12C2706.12 217.069 2703.36 226.381 2698.43 232.1L2702.97 236.019ZM2712.12 203.542V94.5332H2706.12V203.542H2712.12ZM2709.12 97.5332H2746.84V91.5332H2709.12V97.5332ZM2948.87 273V276H2951.87V273H2948.87ZM2900.77 273L2898.17 274.496L2899.04 276H2900.77V273ZM2823.14 137.99L2825.74 136.495L2824.87 134.99H2823.14V137.99ZM2822.04 137.99V134.99H2818.84L2819.05 138.184L2822.04 137.99ZM2824.36 273V276H2827.36V273H2824.36ZM2790.54 273H2787.54V276H2790.54V273ZM2790.54 94.5332V91.5332H2787.54V94.5332H2790.54ZM2838.27 94.5332L2840.87 93.0282L2840 91.5332H2838.27V94.5332ZM2915.79 228.2L2913.19 229.705L2914.06 231.2H2915.79V228.2ZM2916.64 228.2V231.2H2919.81L2919.64 228.043L2916.64 228.2ZM2914.81 94.5332V91.5332H2911.81V94.5332H2914.81ZM2948.87 94.5332H2951.87V91.5332H2948.87V94.5332ZM2948.87 270H2900.77V276H2948.87V270ZM2903.38 271.504L2825.74 136.495L2820.54 139.486L2898.17 274.496L2903.38 271.504ZM2823.14 134.99H2822.04V140.99H2823.14V134.99ZM2819.05 138.184C2820.59 162.027 2821.36 178.95 2821.36 189.016H2827.36C2827.36 178.737 2826.58 161.643 2825.03 137.796L2819.05 138.184ZM2821.36 189.016V273H2827.36V189.016H2821.36ZM2824.36 270H2790.54V276H2824.36V270ZM2793.54 273V94.5332H2787.54V273H2793.54ZM2790.54 97.5332H2838.27V91.5332H2790.54V97.5332ZM2835.68 96.0382L2913.19 229.705L2918.38 226.695L2840.87 93.0282L2835.68 96.0382ZM2915.79 231.2H2916.64V225.2H2915.79V231.2ZM2919.64 228.043C2918.42 204.849 2917.81 188.522 2917.81 179.006H2911.81C2911.81 188.696 2912.43 205.165 2913.65 228.358L2919.64 228.043ZM2917.81 179.006V94.5332H2911.81V179.006H2917.81ZM2914.81 97.5332H2948.87V91.5332H2914.81V97.5332ZM2945.87 94.5332V273H2951.87V94.5332H2945.87ZM3116.84 249.562L3114.79 247.368L3114.79 247.373L3116.84 249.562ZM2993.91 273H2990.91V276H2993.91V273ZM2993.91 94.5332V91.5332H2990.91V94.5332H2993.91ZM3031.76 125.539V122.539H3028.76V125.539H3031.76ZM3031.76 241.75H3028.76V244.75H3031.76V241.75ZM3138.99 182.058C3138.99 210.852 3130.79 232.46 3114.79 247.368L3118.88 251.757C3136.42 235.415 3144.99 212.02 3144.99 182.058H3138.99ZM3114.79 247.373C3098.84 262.306 3075.56 270 3044.45 270V276C3076.49 276 3101.47 268.069 3118.89 251.752L3114.79 247.373ZM3044.45 270H2993.91V276H3044.45V270ZM2996.91 273V94.5332H2990.91V273H2996.91ZM2993.91 97.5332H3049.94V91.5332H2993.91V97.5332ZM3049.94 97.5332C3078.55 97.5332 3100.34 105.075 3115.74 119.775L3119.89 115.434C3103.06 99.3726 3079.6 91.5332 3049.94 91.5332V97.5332ZM3115.74 119.775C3131.13 134.46 3138.99 155.081 3138.99 182.058H3144.99C3144.99 153.859 3136.73 131.511 3119.89 115.434L3115.74 119.775ZM3105.68 183.034C3105.68 163.492 3101.37 148.275 3092.23 137.927C3083.03 127.508 3069.39 122.539 3051.9 122.539V128.539C3068.26 128.539 3080.01 133.153 3087.73 141.899C3095.52 150.716 3099.68 164.246 3099.68 183.034H3105.68ZM3051.9 122.539H3031.76V128.539H3051.9V122.539ZM3028.76 125.539V241.75H3034.76V125.539H3028.76ZM3031.76 244.75H3047.99V238.75H3031.76V244.75ZM3047.99 244.75C3066.74 244.75 3081.34 239.708 3091.2 229.116C3101.03 218.564 3105.68 203.018 3105.68 183.034H3099.68C3099.68 202.195 3095.21 216.006 3086.81 225.026C3078.45 234.006 3065.7 238.75 3047.99 238.75V244.75Z" fill="#06D6A0"/>
<defs>
<linearGradient id="paint0_linear" x1="-29.6152" y1="25" x2="1175.83" y2="639.78" gradientUnits="userSpaceOnUse">
<stop stop-color="#06D6A0"/>
<stop offset="1" stop-color="#1B9AAA"/>
</linearGradient>
</defs>
</svg>
